<?xml version="1.0" encoding="UTF-8"?>
<svg version="1.1" xmlns="http://www.w3.org/2000/svg" width="734" height="862">
<path d="M0 0 C242.22 0 484.44 0 734 0 C734 284.46 734 568.92 734 862 C491.78 862 249.56 862 0 862 C0 577.54 0 293.08 0 0 Z " fill="#FDFDFC" transform="translate(0,0)"/>
<path d="M0 0 C3.36602159 1.41934405 6.78320859 2.67633842 10.21289062 3.93310547 C10.21289062 4.59310547 10.21289062 5.25310547 10.21289062 5.93310547 C11.12039063 6.20123047 12.02789062 6.46935547 12.96289062 6.74560547 C15.97462634 7.84604736 17.95703579 8.67725064 20.21289062 10.93310547 C20.21289062 12.25310547 20.21289062 13.57310547 20.21289062 14.93310547 C18.15820313 16.97607422 18.15820313 16.97607422 15.33789062 19.12060547 C11.4254545 22.1781391 7.63447819 25.27663649 3.96289062 28.62060547 C3.15335938 29.35537109 2.34382812 30.09013672 1.50976562 30.84716797 C0.75179687 31.53552734 -0.00617188 32.22388672 -0.78710938 32.93310547 C-7.45377604 38.93310547 -7.45377604 38.93310547 -9.78710938 38.93310547 C-9.78710938 39.59310547 -9.78710938 40.25310547 -9.78710938 40.93310547 C-10.44710937 40.93310547 -11.10710937 40.93310547 -11.78710938 40.93310547 C-11.78710938 41.59310547 -11.78710938 42.25310547 -11.78710938 42.93310547 C-13.39648438 44.51904297 -13.39648438 44.51904297 -15.53710938 46.30810547 C-17.8561464 48.27068274 -20.03930222 50.19193497 -22.16210938 52.37060547 C-23.78710938 53.93310547 -23.78710938 53.93310547 -25.78710938 53.93310547 C-26.05523437 54.55185547 -26.32335937 55.17060547 -26.59960938 55.80810547 C-27.78710938 57.93310547 -27.78710938 57.93310547 -30.78710938 59.93310547 C-31.11710938 60.92310547 -31.44710937 61.91310547 -31.78710938 62.93310547 C-32.44710937 62.93310547 -33.10710937 62.93310547 -33.78710938 62.93310547 C-33.78710938 63.59310547 -33.78710938 64.25310547 -33.78710938 64.93310547 C-35.20670158 65.84570046 -36.62830252 66.75534195 -38.06054688 67.64794922 C-40.65412657 69.57846442 -42.50890356 72.00722921 -44.49023438 74.54248047 C-44.91820312 75.00138672 -45.34617187 75.46029297 -45.78710938 75.93310547 C-46.44710937 75.93310547 -47.10710937 75.93310547 -47.78710938 75.93310547 C-48.05394531 76.52994141 -48.32078125 77.12677734 -48.59570312 77.74169922 C-49.8119787 79.97884871 -50.99068196 81.27730614 -52.84960938 82.99560547 C-56.73705576 86.77013847 -60.11457338 90.86139249 -63.50195312 95.08544922 C-65.01431605 96.97008609 -66.54806182 98.83777912 -68.10351562 100.68701172 C-69.18439453 101.98445313 -69.18439453 101.98445313 -70.28710938 103.30810547 C-70.93679687 104.07896484 -71.58648437 104.84982422 -72.25585938 105.64404297 C-73.91207547 108.11991702 -74.41412361 110.00102292 -74.78710938 112.93310547 C-69.18743559 108.13807796 -69.18743559 108.13807796 -63.91210938 102.99560547 C-61.78710938 100.93310547 -61.78710938 100.93310547 -59.78710938 100.93310547 C-59.78710938 100.27310547 -59.78710938 99.61310547 -59.78710938 98.93310547 C-58.21424254 97.51872141 -56.57570942 96.17706146 -54.91210938 94.87060547 C-51.15356985 91.8685618 -47.50836944 88.82139471 -43.97460938 85.55810547 C-38.37521348 80.45722495 -32.42177509 75.85568257 -26.43847656 71.22021484 C-24.0760025 69.37885422 -21.74400041 67.50046839 -19.41210938 65.62060547 C1.91126489 48.56190605 26.1086947 30.42833887 51.33007812 19.76123047 C53.76129097 18.69190034 55.9526626 17.32401502 58.21289062 15.93310547 C63.98767792 12.69295332 69.82992884 10.65964431 76.21289062 8.93310547 C76.21289062 8.27310547 76.21289062 7.61310547 76.21289062 6.93310547 C76.85097656 6.81193359 77.4890625 6.69076172 78.14648438 6.56591797 C79.38591797 6.31455078 79.38591797 6.31455078 80.65039062 6.05810547 C81.47410156 5.89568359 82.2978125 5.73326172 83.14648438 5.56591797 C83.82839844 5.35708984 84.5103125 5.14826172 85.21289062 4.93310547 C85.54289062 4.27310547 85.87289063 3.61310547 86.21289062 2.93310547 C88.18725586 2.18701172 88.18725586 2.18701172 90.77148438 1.49560547 C91.71572266 1.24037109 92.65996094 0.98513672 93.6328125 0.72216797 C94.62861328 0.46177734 95.62441406 0.20138672 96.65039062 -0.06689453 C98.09188477 -0.45748047 98.09188477 -0.45748047 99.5625 -0.85595703 C113.90189771 -4.68495332 132.25656779 -9.32635574 146.30273438 -2.26611328 C152.11057794 1.3801198 155.79293074 5.04764908 157.77148438 11.85498047 C160.0732417 22.69157249 155.65673963 32.73243358 150.21289062 41.93310547 C137.90233187 59.5470969 122.19990055 70.82029055 102.21289062 77.93310547 C100.83717263 78.49384717 99.46201709 79.05597489 98.08789062 79.62060547 C94.79503378 80.84386978 91.45126956 81.60294726 88.02539062 82.37060547 C86.90261719 82.62841797 85.77984375 82.88623047 84.62304688 83.15185547 C82.44766935 83.65022374 80.26819412 84.13124406 78.08398438 84.58935547 C58.14937826 89.57924436 42.6984214 106.12933698 32.30859375 123.07568359 C27.62108283 131.02189194 23.49758614 139.0825846 22.08789062 148.24560547 C21.9203125 149.31423828 21.75273437 150.38287109 21.58007812 151.48388672 C21.45890625 152.29212891 21.33773438 153.10037109 21.21289062 153.93310547 C21.54160156 153.19447266 21.8703125 152.45583984 22.20898438 151.69482422 C33.1350186 128.39187317 57.4345147 106.87862576 81.21289062 96.93310547 C82.23189453 96.50578125 82.23189453 96.50578125 83.27148438 96.06982422 C90.26780289 93.4384103 98.55010322 91.30803603 105.57617188 94.42529297 C106.44628906 94.92287109 107.31640625 95.42044922 108.21289062 95.93310547 C108.86194344 107.20739322 108.75532017 115.99074809 103.52539062 126.14794922 C101.92870011 129.02301108 101.92870011 129.02301108 102.21289062 132.93310547 C103.20289063 133.26310547 104.19289063 133.59310547 105.21289062 133.93310547 C104.46289062 135.87060547 104.46289062 135.87060547 103.21289062 137.93310547 C101.13476562 138.56201172 101.13476562 138.56201172 99.21289062 138.93310547 C98.75197699 146.19249518 100.0378833 150.4964012 103.21289062 156.93310547 C103.91707059 158.61371342 104.60446294 160.30144829 105.27539062 161.99560547 C105.60410156 162.82447266 105.9328125 163.65333984 106.27148438 164.50732422 C107.14839521 166.76691604 107.99842814 169.03438546 108.83789062 171.30810547 C110.03493854 174.71065367 110.03493854 174.71065367 111.27148438 176.87841797 C112.9197086 180.47578702 112.88965795 184.07196979 112.21289062 187.93310547 C108.80148875 191.98414519 104.10907926 193.27338051 99.21289062 194.93310547 C99.15839224 196.66191529 99.11987374 198.39123259 99.08789062 200.12060547 C99.05308594 201.565 99.05308594 201.565 99.01757812 203.03857422 C99.22226337 206.07200962 100.04787649 208.15210399 101.21289062 210.93310547 C100.83789062 213.74560547 100.83789062 213.74560547 100.21289062 215.93310547 C99.55289062 215.93310547 98.89289063 215.93310547 98.21289062 215.93310547 C98.21289062 216.59310547 98.21289062 217.25310547 98.21289062 217.93310547 C96.56289063 217.93310547 94.91289062 217.93310547 93.21289062 217.93310547 C93.64601563 218.71234375 93.64601563 218.71234375 94.08789062 219.50732422 C98.08387593 227.01367161 98.08387593 227.01367161 97.21289062 230.93310547 C95.33789062 233.24560547 95.33789062 233.24560547 93.21289062 234.93310547 C92.55289062 234.93310547 91.89289063 234.93310547 91.21289062 234.93310547 C91.15230469 236.01849609 91.09171875 237.10388672 91.02929688 238.22216797 C90.94482998 239.66749033 90.86018512 241.11280229 90.77539062 242.55810547 C90.73607422 243.27095703 90.69675781 243.98380859 90.65625 244.71826172 C90.40979382 248.85114229 89.97819009 252.85579571 89.21289062 256.93310547 C88.55289062 256.93310547 87.89289063 256.93310547 87.21289062 256.93310547 C86.90351562 258.54185547 86.90351562 258.54185547 86.58789062 260.18310547 C85.33011015 263.61341586 84.58597956 265.46800967 81.36132812 267.26123047 C74.93821332 269.26991364 68.22603678 269.06258421 61.95117188 266.71044922 C48.81162751 259.59389702 40.86377028 247.88574445 36.21289062 233.93310547 C37.0660134 241.78183497 38.84043761 249.27031992 43.21289062 255.93310547 C43.21289062 256.59310547 43.21289062 257.25310547 43.21289062 257.93310547 C43.87289063 257.93310547 44.53289062 257.93310547 45.21289062 257.93310547 C46.58789062 259.88232422 46.58789062 259.88232422 48.21289062 262.62060547 C58.63323408 279.98425012 58.63323408 279.98425012 73.21289062 292.93310547 C73.43976563 292.25248047 73.66664063 291.57185547 73.90039062 290.87060547 C75.55784524 287.1610642 77.77738846 284.16760637 80.21289062 280.93310547 C80.94221802 279.95277344 80.94221802 279.95277344 81.6862793 278.95263672 C83.18783531 276.94050788 84.69860284 274.93566572 86.21289062 272.93310547 C86.90439209 272.01658203 86.90439209 272.01658203 87.60986328 271.08154297 C91.78176978 265.56557486 95.97563995 260.09483534 100.55273438 254.90576172 C102.38401327 252.7297715 104.10739624 250.47981263 105.83691406 248.22265625 C111.98814936 240.22255782 118.69934581 232.89981795 125.65039062 225.59277344 C128.39215103 222.68050981 131.03019013 219.67872289 133.66210938 216.66748047 C135.12115949 215.03569646 136.6650621 213.48093399 138.21289062 211.93310547 C130.62289063 211.60310547 123.03289062 211.27310547 115.21289062 210.93310547 C116.21289062 205.93310547 116.21289062 205.93310547 118.02539062 203.80810547 C127.33839566 198.32986722 139.07414109 197.75981478 149.65039062 197.87060547 C150.89079102 197.87737305 150.89079102 197.87737305 152.15625 197.88427734 C154.17516209 197.89594736 156.19403637 197.91387829 158.21289062 197.93310547 C158.3899353 196.97488892 158.3899353 196.97488892 158.57055664 195.99731445 C158.78252686 195.31612549 158.99449707 194.63493652 159.21289062 193.93310547 C161.49023437 192.90576172 161.49023437 192.90576172 164.21289062 191.93310547 C166.57263084 190.21005739 168.78551063 188.36216921 171.02929688 186.49169922 C173.21648466 184.93054013 174.6615006 184.56443102 177.21289062 183.93310547 C178.23717116 182.9579904 179.23552359 181.9552374 180.21289062 180.93310547 C181.7044109 179.98927357 183.2278992 179.09455875 184.77539062 178.24560547 C185.56042969 177.80861328 186.34546875 177.37162109 187.15429688 176.92138672 C189.21289062 175.93310547 189.21289062 175.93310547 191.21289062 175.93310547 C190.30879905 173.56436166 190.30879905 173.56436166 187.06445312 172.71435547 C165.97576527 166.07764391 144.11554444 166.43213787 122.21289062 165.93310547 C122.79724532 162.88429835 123.03929597 162.08741183 125.46289062 159.93310547 C137.96726698 152.33475237 154.38957086 151.5397091 168.58789062 151.55810547 C169.89338867 151.5597168 171.19888672 151.56132812 172.54394531 151.56298828 C208.28904023 152.00925507 208.28904023 152.00925507 217.21289062 160.93310547 C222.15674929 160.47019735 226.48744273 159.28483991 231.15039062 157.62060547 C236.65898708 155.71292389 242.18549939 154.04892957 247.83789062 152.62060547 C248.50038818 152.44940186 249.16288574 152.27819824 249.84545898 152.10180664 C253.37160385 151.23347823 256.58151356 150.74527562 260.21289062 150.93310547 C257.14788043 147.484969 253.78236944 145.35065355 249.82226562 143.08154297 C249.29117187 142.70255859 248.76007813 142.32357422 248.21289062 141.93310547 C248.21289062 141.27310547 248.21289062 140.61310547 248.21289062 139.93310547 C247.06820312 139.59279297 247.06820312 139.59279297 245.90039062 139.24560547 C242.90225391 138.17847206 240.19706161 136.99197255 237.33789062 135.62060547 C227.26267248 130.99769836 216.61993589 128.13032738 205.83789062 125.68310547 C205.12560303 125.5199585 204.41331543 125.35681152 203.67944336 125.1887207 C186.09012259 121.37360657 168.04688768 122.19587709 150.43554688 125.27685547 C146.99231716 125.86620256 143.71490344 126.06801447 140.21289062 125.93310547 C140.21289062 126.59310547 140.21289062 127.25310547 140.21289062 127.93310547 C135.08369877 130.03738931 130.65180712 130.15066213 125.21289062 129.93310547 C125.95441742 125.63225008 127.83642558 124.04885514 131.13085938 121.37841797 C134.5968876 118.9723571 138.30314348 117.47272812 142.21289062 115.93310547 C143.04304688 115.57087891 143.87320312 115.20865234 144.72851562 114.83544922 C150.00375395 112.5781003 154.52508191 111.52149947 160.21289062 110.93310547 C161.5542543 110.28274732 162.88821316 109.61680997 164.21289062 108.93310547 C179.65803514 106.34934523 195.60449097 106.66488068 211.21289062 106.93310547 C211.98084961 106.94567383 212.74880859 106.95824219 213.54003906 106.97119141 C226.16922317 107.25440881 238.62033955 109.32364265 250.02929688 114.95263672 C252.59915448 116.10654416 255.19567865 116.83513721 257.90039062 117.62060547 C268.45440404 121.03077838 277.58224242 128.13257062 286.21289062 134.93310547 C287.20289063 135.67560547 288.19289063 136.41810547 289.21289062 137.18310547 C289.87289062 137.76060547 290.53289063 138.33810547 291.21289062 138.93310547 C291.21289062 139.59310547 291.21289062 140.25310547 291.21289062 140.93310547 C292.20289063 140.93310547 293.19289063 140.93310547 294.21289062 140.93310547 C293.77682868 127.20467257 292.46128288 113.77154546 290.47241211 100.18115234 C290.21289062 97.93310547 290.21289062 97.93310547 290.21289062 93.93310547 C289.55289063 93.93310547 288.89289062 93.93310547 288.21289062 93.93310547 C288.0659375 93.37623047 287.91898438 92.81935547 287.76757812 92.24560547 C284.55578412 81.31812241 276.87284954 72.70561893 267.21289062 66.68701172 C265.23981642 65.69636405 263.23493105 64.8193307 261.21289062 63.93310547 C259.2732074 62.93734685 257.33588906 61.93697402 255.40039062 60.93310547 C241.29617419 53.93402062 227.8369471 51.90481438 212.21289062 50.93310547 C212.21289062 51.92310547 212.21289062 52.91310547 212.21289062 53.93310547 C212.87289063 53.87123047 213.53289062 53.80935547 214.21289062 53.74560547 C218.23519722 53.99699963 221.525062 55.42775509 225.21289062 56.93310547 C226.40269531 57.39330078 227.5925 57.85349609 228.81835938 58.32763672 C230.13754589 58.84150779 231.45655477 59.3558351 232.77539062 59.87060547 C233.4004248 60.11117676 234.02545898 60.35174805 234.66943359 60.59960938 C239.11148266 62.35707011 243.10769243 64.4862353 247.21289062 66.93310547 C248.08171875 67.43970703 248.95054687 67.94630859 249.84570312 68.46826172 C260.59362219 75.05515256 272.51224952 83.30379762 278.21289062 94.93310547 C278.21289062 96.25310547 278.21289062 97.57310547 278.21289062 98.93310547 C263.80641502 106.13634327 234.94806479 98.62089528 220.90039062 94.12060547 C213.90806907 91.76066914 207.50753729 88.81426067 201.21289062 84.93310547 C200.31183594 84.42134766 199.41078125 83.90958984 198.48242188 83.38232422 C196.21289062 81.93310547 196.21289062 81.93310547 195.21289062 79.93310547 C193.75882812 79.19060547 193.75882812 79.19060547 192.27539062 78.43310547 C183.00312596 73.2839585 175.72869457 63.80769506 170.21289062 54.93310547 C170.21289062 54.27310547 170.21289062 53.61310547 170.21289062 52.93310547 C169.55289062 52.93310547 168.89289063 52.93310547 168.21289062 52.93310547 C166.9418287 50.31621326 166.21289062 48.36020927 166.21289062 45.43310547 C167.66302376 41.80777262 170.12216164 40.11516013 173.21289062 37.93310547 C173.91929687 37.38525391 174.62570312 36.83740234 175.35351562 36.27294922 C192.46140817 24.03381226 214.10645797 22.59584539 234.35742188 25.62451172 C238.0110009 26.2538084 241.61566933 27.0324599 245.21289062 27.93310547 C245.21289062 28.59310547 245.21289062 29.25310547 245.21289062 29.93310547 C246.66695312 30.30435547 246.66695312 30.30435547 248.15039062 30.68310547 C258.59200553 33.71454205 266.81395754 38.96502369 274.21289062 46.93310547 C274.9940625 47.68914062 274.9940625 47.68914062 275.79101562 48.46044922 C280.71436998 53.52795584 283.58884578 59.22245151 286.5480957 65.5612793 C288.11622887 69.42007052 288.11622887 69.42007052 291.21289062 71.93310547 C291.39851562 70.71623047 291.58414063 69.49935547 291.77539062 68.24560547 C294.86496975 54.76572943 303.79700998 43.74449779 315.08789062 36.05810547 C316.44355943 35.31344232 317.82109519 34.60783993 319.21289062 33.93310547 C320.10878906 33.47033203 321.0046875 33.00755859 321.92773438 32.53076172 C331.44621542 28.19763226 340.93907089 27.95415574 351.21289062 28.93310547 C353.21289062 30.93310547 353.21289062 30.93310547 353.47851562 33.29638672 C353.43289021 41.9081842 352.95461081 50.70794491 350.21289062 58.93310547 C349.55289063 58.93310547 348.89289062 58.93310547 348.21289062 58.93310547 C348.00664063 59.90248047 347.80039062 60.87185547 347.58789062 61.87060547 C343.03474652 77.50830038 326.71597405 90.31005508 313.59570312 98.68310547 C311.21289062 99.93310547 311.21289062 99.93310547 308.21289062 99.93310547 C305.13677801 93.78088023 308.14993804 85.87069105 309.94726562 79.65576172 C311.69154439 74.52521338 314.1558919 70.37141472 317.21289062 65.93310547 C317.74527344 65.07201172 318.27765625 64.21091797 318.82617188 63.32373047 C321.79982931 58.57178162 321.79982931 58.57178162 323.21289062 56.93310547 C324.20289063 56.93310547 325.19289063 56.93310547 326.21289062 56.93310547 C326.54289063 55.61310547 326.87289062 54.29310547 327.21289062 52.93310547 C324.57289063 53.26310547 321.93289063 53.59310547 319.21289062 53.93310547 C319.21289062 54.59310547 319.21289062 55.25310547 319.21289062 55.93310547 C318.20226562 56.67560547 317.19164062 57.41810547 316.15039062 58.18310547 C307.76890978 65.15350536 303.88040269 77.46411713 302.21289062 87.93310547 C301.7722622 94.00728995 301.92661737 100.09892148 302.02539062 106.18310547 C302.04047606 107.81460343 302.05415759 109.446115 302.06640625 111.07763672 C302.09908043 115.02980279 302.15064489 118.98129909 302.21289062 122.93310547 C302.87289062 122.93310547 303.53289063 122.93310547 304.21289062 122.93310547 C304.43976562 122.08748047 304.66664063 121.24185547 304.90039062 120.37060547 C308.10442007 111.97909977 313.13629843 107.76803414 321.21289062 103.93310547 C324.50744713 102.74078978 327.80879853 101.75877887 331.21289062 100.93310547 C331.21289062 100.27310547 331.21289062 99.61310547 331.21289062 98.93310547 C345.15904307 97.84166745 354.26582382 99.64154083 366.21289062 106.93310547 C366.87289062 107.26310547 367.53289063 107.59310547 368.21289062 107.93310547 C368.04677993 114.41142257 364.50743915 118.4405813 360.21289062 122.93310547 C353.02149324 129.32291397 345.33300059 133.04136328 336.21289062 135.93310547 C335.09333984 136.30242187 335.09333984 136.30242187 333.95117188 136.67919922 C326.59760977 138.71018304 318.77051584 138.10002234 311.21289062 137.93310547 C310.93359092 134.94873641 310.88136291 133.41372805 312.61132812 130.90576172 C320.16839251 123.6025908 331.03523127 115.2304749 342.00585938 114.83154297 C342.73417969 114.86505859 343.4625 114.89857422 344.21289062 114.93310547 C344.21289062 114.27310547 344.21289062 113.61310547 344.21289062 112.93310547 C339.92289063 112.93310547 335.63289062 112.93310547 331.21289062 112.93310547 C331.21289062 113.59310547 331.21289062 114.25310547 331.21289062 114.93310547 C330.09914063 115.15998047 328.98539063 115.38685547 327.83789062 115.62060547 C320.35542923 117.53441442 313.26094404 120.31745464 309.10351562 127.12451172 C306.16186009 133.09813677 305.71264074 139.39690002 305.21289062 145.93310547 C306.21707031 145.89830078 307.22125 145.86349609 308.25585938 145.82763672 C321.52286196 145.5080285 335.34900008 146.50283995 345.65039062 155.80810547 C350.50617311 161.09814492 349.33312641 168.17318253 349.21289062 174.93310547 C346.85847347 174.79068899 344.50441579 174.64425739 342.15039062 174.49560547 C340.83941406 174.41439453 339.5284375 174.33318359 338.17773438 174.24951172 C334.21289063 173.93310547 334.21289063 173.93310547 331.16821289 173.42822266 C326.08752635 172.79223523 321.07873449 172.73154404 315.96289062 172.69482422 C314.32827881 172.6827166 314.32827881 172.6827166 312.66064453 172.67036438 C310.35092741 172.65656264 308.04119022 172.64582309 305.73144531 172.63793945 C303.41432539 172.62652428 301.0972295 172.60624312 298.78027344 172.57641602 C282.80325343 172.37125916 267.83566862 173.54488781 252.21289062 176.93310547 C251.51647461 177.08109589 250.82005859 177.2290863 250.10253906 177.38156128 C246.28654412 178.20072673 242.49755508 179.10563998 238.71289062 180.05810547 C237.16794922 180.43515625 237.16794922 180.43515625 235.59179688 180.81982422 C227.06379581 182.91615395 218.81380889 185.36123912 210.58789062 188.43310547 C209.75515625 188.74119141 208.92242188 189.04927734 208.06445312 189.36669922 C204.79050383 190.58139697 201.53392434 191.79811555 198.31445312 193.15185547 C196.21289063 193.93310547 196.21289063 193.93310547 193.21289062 193.93310547 C193.21289062 194.59310547 193.21289062 195.25310547 193.21289062 195.93310547 C192.01664062 196.42810547 190.82039063 196.92310547 189.58789062 197.43310547 C168.34942218 206.97550627 148.99348257 221.95064269 134.21289062 239.93310547 C135.22867187 239.22025391 136.24445313 238.50740234 137.29101562 237.77294922 C162.87050143 219.93310547 162.87050143 219.93310547 171.21289062 219.93310547 C171.21289062 219.27310547 171.21289062 218.61310547 171.21289062 217.93310547 C175.83472545 215.76969342 180.06625933 214.41636764 185.09960938 213.55810547 C187.2878838 213.05089252 187.2878838 213.05089252 189.01367188 211.53076172 C191.99709623 209.36340726 195.22339349 208.42066656 198.71289062 207.37060547 C199.42268066 207.15227051 200.1324707 206.93393555 200.86376953 206.70898438 C206.02486813 205.16983163 211.14482751 204.15805775 216.47851562 203.39404297 C220.02974538 202.7954071 223.35680266 201.74498487 226.78320312 200.65576172 C230.01467149 199.69463367 233.26954694 199.0457812 236.58203125 198.43066406 C238.99959402 197.97344497 241.40596316 197.47845398 243.81445312 196.97607422 C260.44787636 193.66073193 277.10786137 192.63848639 294.02539062 192.62060547 C294.78575623 192.61720154 295.54612183 192.61379761 296.32952881 192.61029053 C308.6487076 192.57865422 320.85193761 193.06758716 332.46289062 197.62060547 C333.13545898 197.88115723 333.80802734 198.14170898 334.50097656 198.41015625 C342.25843796 201.56665345 349.2503645 205.75735545 352.62695312 213.76513672 C354.59623369 221.05147479 353.21047747 227.18853507 350.21289062 233.93310547 C345.56336879 233.60872022 341.99337833 232.46886904 337.71289062 230.62060547 C328.91727985 227.10033218 319.72030278 225.90065719 310.39794922 224.47338867 C308.14114135 224.09056514 305.89409799 223.64799782 303.65673828 223.16430664 C292.4621041 220.78426146 281.63604046 220.42004743 270.21289062 220.49560547 C269.26612457 220.49798218 268.31935852 220.50035889 267.34390259 220.50280762 C253.56016993 220.55688827 240.35915956 221.37158705 226.86474609 224.36865234 C224.02303751 224.97351611 221.17630407 225.4711823 218.31054688 225.94873047 C205.70449263 228.05408223 194.32914063 231.21363835 182.49804688 236.06982422 C179.87940626 237.05908845 177.22347727 237.6867603 174.49414062 238.29638672 C170.23125709 239.48619839 166.16536943 241.24780926 162.06835938 242.90966797 C159.21289062 243.93310547 159.21289062 243.93310547 156.21289062 243.93310547 C156.21289062 244.59310547 156.21289062 245.25310547 156.21289062 245.93310547 C155.59285156 246.20123047 154.9728125 246.46935547 154.33398438 246.74560547 C148.50348104 249.32562441 142.79723561 252.10137079 137.15039062 255.05810547 C136.49546631 255.39455078 135.84054199 255.73099609 135.16577148 256.07763672 C131.94600583 257.78561881 130.27349468 258.84219939 128.21289062 261.93310547 C130.81755606 261.62438218 133.42156753 261.31128823 136.02539062 260.99560547 C136.76337891 260.90859375 137.50136719 260.82158203 138.26171875 260.73193359 C141.38022183 260.35094 144.22397185 259.92941173 147.21289062 258.93310547 C158.21465774 257.93852608 169.29808406 257.79232845 180.33789062 257.68310547 C182.04332031 257.65108032 182.04332031 257.65108032 183.78320312 257.6184082 C191.42806416 257.58741857 198.55650304 258.0079954 204.71289062 262.93310547 C207.82250276 267.07925498 207.37259728 270.98219914 207.21289062 275.93310547 C205.06138344 278.08461265 200.09636241 277.21303208 197.08789062 277.30810547 C185.11463794 277.81389783 174.0587944 279.94515347 162.58789062 283.43310547 C161.9243457 283.63452148 161.26080078 283.8359375 160.57714844 284.04345703 C157.76525048 284.94228332 155.26189567 285.90359457 152.72851562 287.42919922 C149.51633302 289.34952578 146.1285162 290.36188338 142.58789062 291.49560547 C132.53560285 294.89164864 123.43876622 299.7437859 114.21289062 304.93310547 C113.39530273 305.38862793 112.57771484 305.84415039 111.73535156 306.31347656 C109.34450755 307.65176262 106.96411376 309.00655228 104.58789062 310.37060547 C103.85892578 310.78342773 103.12996094 311.19625 102.37890625 311.62158203 C98.28346876 313.88587904 98.28346876 313.88587904 96.21289062 317.93310547 C100.12419561 320.55547255 104.33202031 320.24736141 108.86132812 320.27685547 C110.13479599 320.29878967 110.13479599 320.29878967 111.43399048 320.32116699 C114.15190881 320.36759256 116.86975917 320.40176281 119.58789062 320.43310547 C134.88034901 320.61295164 149.58661115 320.87793975 164.21289062 325.93310547 C164.21289062 326.59310547 164.21289062 327.25310547 164.21289062 327.93310547 C165.45039062 328.27341797 165.45039062 328.27341797 166.71289062 328.62060547 C173.22261534 331.06175224 178.63127984 334.65731124 183.21289062 339.93310547 C183.54289062 340.92310547 183.87289063 341.91310547 184.21289062 342.93310547 C184.83164062 343.44873047 185.45039063 343.96435547 186.08789062 344.49560547 C190.62711401 349.70236171 191.77921626 357.07662167 191.49414062 363.84716797 C190.5591203 370.78190208 186.05195378 378.00192887 180.47851562 382.25732422 C172.81309 386.81927 164.99067288 388.2268829 156.21289062 386.93310547 C149.22772245 384.04681348 143.35428792 379.43149852 137.51757812 374.70654297 C132.75967343 371.04537563 127.58924407 367.62128219 122.21289062 364.93310547 C122.21289062 364.27310547 122.21289062 363.61310547 122.21289062 362.93310547 C121.38789063 362.68302734 120.56289063 362.43294922 119.71289062 362.17529297 C116.44240958 361.0145642 113.45656577 359.65127445 110.35473633 358.11572266 C102.15651882 354.06754322 94.16542926 350.95057896 85.21289062 348.93310547 C84.43913086 348.75263672 83.66537109 348.57216797 82.86816406 348.38623047 C67.91091689 344.97926997 53.5107124 344.26477789 38.21289062 344.93310547 C37.26381836 344.97177734 36.31474609 345.01044922 35.33691406 345.05029297 C13.20787821 346.10442567 -6.74288415 352.26882534 -26.90551758 361.20214844 C-28.78710938 361.93310547 -28.78710938 361.93310547 -30.78710938 361.93310547 C-31.11710938 362.92310547 -31.44710937 363.91310547 -31.78710938 364.93310547 C-33.68554688 365.85498047 -33.68554688 365.85498047 -36.16210938 366.68310547 C-48.70431995 371.39983423 -58.97331651 380.41592045 -68.86132812 389.23388672 C-70.1357386 390.35836655 -71.43014058 391.46062208 -72.74414062 392.53857422 C-78.57053585 397.37666572 -83.16857745 402.95092967 -87.78710938 408.93310547 C-88.46902344 409.81095703 -89.1509375 410.68880859 -89.85351562 411.59326172 C-100.58411426 425.85172839 -107.29054645 441.06986388 -112.78710938 457.93310547 C-113.44710937 457.93310547 -114.10710937 457.93310547 -114.78710938 457.93310547 C-115.26747155 461.26626764 -115.74617842 464.5996656 -116.22460938 467.93310547 C-116.42666992 469.33496094 -116.42666992 469.33496094 -116.6328125 470.76513672 C-116.89985737 472.62793754 -117.16352713 474.49122532 -117.42382812 476.35498047 C-117.72722054 478.50808796 -118.0497433 480.65848863 -118.37695312 482.80810547 C-119.06925942 488.49123842 -118.93155029 494.2174772 -118.91210938 499.93310547 C-118.91597656 501.07005859 -118.91984375 502.20701172 -118.92382812 503.37841797 C-118.92253906 504.48958984 -118.92125 505.60076172 -118.91992188 506.74560547 C-118.91822998 508.24027344 -118.91822998 508.24027344 -118.91650391 509.76513672 C-118.79188529 512.81617654 -118.42018058 515.78129429 -118.0184021 518.80596924 C-117.61148537 522.54827166 -117.60398861 526.28906932 -117.58398438 530.05029297 C-117.5782843 530.90632111 -117.57258423 531.76234924 -117.56671143 532.64431763 C-117.5573134 534.45117988 -117.55074827 536.25805887 -117.546875 538.06494141 C-117.53725887 540.76611199 -117.50622301 543.46649072 -117.47460938 546.16748047 C-117.30053227 574.75604572 -117.30053227 574.75604572 -122.78710938 583.93310547 C-127.53710938 583.18310547 -127.53710938 583.18310547 -129.78710938 580.93310547 C-130.51733398 579.07641602 -130.51733398 579.07641602 -131.18945312 576.81982422 C-131.43856445 575.99135986 -131.68767578 575.16289551 -131.94433594 574.30932617 C-132.33057129 572.97840942 -132.33057129 572.97840942 -132.72460938 571.62060547 C-133.12437988 570.24811646 -133.12437988 570.24811646 -133.53222656 568.84790039 C-134.05850976 567.02314062 -134.58026038 565.19706667 -135.09716797 563.36962891 C-135.64311704 561.44161343 -136.20620468 559.51845176 -136.77539062 557.59716797 C-138.84807476 549.83788889 -139.32449015 542.0495582 -139.87792969 534.07226562 C-140.67158662 523.21244598 -141.95956122 512.42620758 -143.28710938 501.62060547 C-143.39488708 500.73433472 -143.50266479 499.84806396 -143.6137085 498.93493652 C-145.77853575 481.15881102 -145.77853575 481.15881102 -149.22851562 463.59716797 C-149.83704526 460.69494969 -150.31541337 457.77869019 -150.79321289 454.85253906 C-152.9832583 440.48228361 -152.9832583 440.48228361 -159.78710938 427.93310547 C-162.94356016 428.19614303 -164.48191775 428.65565854 -166.84960938 430.80810547 C-169.07795618 434.40221322 -170.36582534 437.94167737 -171.72460938 441.93310547 C-172.76203223 444.86229941 -173.96296777 447.65691186 -175.22460938 450.49560547 C-178.25270926 457.66303455 -180.15238832 465.07990823 -182.15332031 472.58105469 C-183.19864645 476.46035822 -184.296641 480.32346623 -185.41210938 484.18310547 C-185.60611328 484.87364014 -185.80011719 485.5641748 -186 486.27563477 C-187.20181538 490.41731464 -188.74697445 494.13586012 -190.78710938 497.93310547 C-193.15039063 497.38623047 -193.15039063 497.38623047 -195.78710938 495.93310547 C-196.78499819 493.4127579 -197.42980897 491.29915166 -197.97460938 488.68310547 C-199.22571924 483.2068082 -199.22571924 483.2068082 -200.83789062 477.82763672 C-202.1306466 473.885529 -202.63421256 469.93132715 -203.22460938 465.83544922 C-203.67016309 462.9854444 -203.67016309 462.9854444 -204.75317383 460.68505859 C-209.10306675 449.10725623 -208.13078301 434.93113776 -208.1027832 422.7512207 C-208.09960949 419.87071292 -208.12323323 416.99122275 -208.1484375 414.11083984 C-208.18595154 403.28838826 -207.43744979 393.47001873 -204.78710938 382.93310547 C-204.56708252 381.96606689 -204.34705566 380.99902832 -204.12036133 380.00268555 C-203.53912031 377.45025927 -202.92055248 374.91050799 -202.28710938 372.37060547 C-202.08730469 371.53464844 -201.8875 370.69869141 -201.68164062 369.83740234 C-200.52655727 365.18396144 -199.10927548 361.16615486 -196.78710938 356.93310547 C-195.4226053 353.84813973 -194.10252383 350.77563146 -192.91992188 347.61669922 C-186.66411561 331.09826864 -174.99016176 316.69162876 -161.51367188 305.40576172 C-159.79659375 303.98596738 -159.79659375 303.98596738 -158.38085938 302.49560547 C-151.80241363 296.04614885 -143.73092215 291.11821193 -135.84960938 286.43310547 C-135.12821777 285.9998999 -134.40682617 285.56669434 -133.66357422 285.12036133 C-130.06235108 283.02210022 -127.0080794 281.39567753 -122.78710938 280.93310547 C-122.78710938 280.27310547 -122.78710938 279.61310547 -122.78710938 278.93310547 C-106.85210685 272.07394428 -91.15721629 266.22824544 -74.41381836 261.66894531 C-72.51206957 261.13619405 -70.6163947 260.58160172 -68.72485352 260.01367188 C-59.87637398 257.38154135 -50.99764294 255.40769214 -41.94213867 253.640625 C-39.56288855 253.17593352 -37.185692 252.7016396 -34.80859375 252.22607422 C-33.28721837 251.92474214 -31.76573785 251.62394032 -30.24414062 251.32373047 C-29.53796097 251.18316223 -28.83178131 251.04259399 -28.10420227 250.89776611 C-25.27533554 250.34851719 -22.67723908 249.93310547 -19.78710938 249.93310547 C-19.78710938 249.27310547 -19.78710938 248.61310547 -19.78710938 247.93310547 C-20.563125 247.88412109 -21.33914063 247.83513672 -22.13867188 247.78466797 C-27.82022323 247.3914341 -33.36516675 246.86050711 -38.97460938 245.87060547 C-56.53846016 243.23504443 -78.17567672 242.94693766 -95.49023438 247.40576172 C-98.36454477 248.06567992 -101.23771943 248.42739572 -104.16210938 248.80810547 C-118.9956551 250.87938468 -133.12297474 254.46313814 -147.33398438 259.14208984 C-151.60887495 260.52053784 -155.91797719 261.78311568 -160.22460938 263.05810547 C-174.39892268 267.23515461 -174.39892268 267.23515461 -188.03710938 272.87060547 C-194.26036827 275.83584945 -200.56730731 277.90326689 -207.15820312 279.85498047 C-209.40882524 280.523626 -211.64484732 281.24709883 -213.84960938 282.05419922 C-217.13198137 283.0362919 -219.92784574 283.23348588 -223.34960938 283.24560547 C-224.44402344 283.26236328 -225.5384375 283.27912109 -226.66601562 283.29638672 C-231.18113477 282.77084719 -233.61185855 281.29433005 -236.56445312 277.87451172 C-238.36319043 273.54719802 -238.36129993 269.51861076 -238.34960938 264.87060547 C-238.34791748 263.90558105 -238.34622559 262.94055664 -238.34448242 261.94628906 C-238.03940461 249.43503789 -234.89402858 237.3485871 -227.95703125 226.88623047 C-226.80173047 224.95751464 -226.09329469 223.18013054 -225.39257812 221.05029297 C-223.55903577 215.79217079 -220.33391355 211.54342214 -217.09960938 207.05810547 C-216.46893555 206.16969971 -215.83826172 205.28129395 -215.18847656 204.3659668 C-212.0834624 200.02046512 -208.92783493 195.74935342 -205.53710938 191.62060547 C-194.71525364 178.43001736 -184.7672123 163.8126942 -184.54101562 146.31982422 C-184.50802464 144.57828373 -184.47481405 142.83674739 -184.44140625 141.09521484 C-184.39445347 138.37511615 -184.35011314 135.65502731 -184.31030273 132.93481445 C-183.96293275 110.27256326 -180.77379275 89.80381823 -171.78710938 68.93310547 C-171.4596875 68.12615234 -171.13226563 67.31919922 -170.79492188 66.48779297 C-165.94661275 54.86043215 -159.44509116 44.95171943 -151.10742188 35.57763672 C-148.71603694 32.96928083 -148.71603694 32.96928083 -146.78710938 29.93310547 C-146.12710938 29.93310547 -145.46710938 29.93310547 -144.78710938 29.93310547 C-144.78710938 29.27310547 -144.78710938 28.61310547 -144.78710938 27.93310547 C-142.36265499 25.35053449 -139.51794629 23.18202999 -136.78710938 20.93310547 C-136.28308594 20.51287109 -135.7790625 20.09263672 -135.25976562 19.65966797 C-126.90938275 12.73105292 -118.37697562 6.9994499 -108.78710938 1.93310547 C-108.06136719 1.53607422 -107.335625 1.13904297 -106.58789062 0.72998047 C-73.19852225 -16.90968584 -33.77410292 -14.61237888 0 0 Z " fill="#8FAE4B" transform="translate(312.787109375,84.06689453125)"/>
<path d="M0 0 C0.66 0 1.32 0 2 0 C2.06058594 0.78503906 2.12117188 1.57007813 2.18359375 2.37890625 C2.62820214 7.95361148 3.12124643 13.47640616 4 19 C4.66 19 5.32 19 6 19 C6.99463838 20.52543098 7.91810141 22.09730993 8.8125 23.68359375 C13.48276218 31.23409268 19.63193485 36.9657002 26 43.0625 C36.09900301 52.76233851 44.67152463 61.80330866 50 75 C50.804375 76.6396875 50.804375 76.6396875 51.625 78.3125 C53.5317812 83.42614049 54.24782325 88.61087482 55 94 C55.66 94 56.32 94 57 94 C59.92381708 114.15308315 61.22179934 134.00093244 59.1875 154.3125 C59.11764893 155.04138428 59.04779785 155.77026855 58.97583008 156.52124023 C58.5019728 160.44081788 57.86673351 163.19103442 55 166 C54.34 166 53.68 166 53 166 C52.53311575 164.71139947 52.07717129 163.41883668 51.625 162.125 C51.24214844 161.04605469 51.24214844 161.04605469 50.8515625 159.9453125 C48.75760097 152.70289509 47.77205127 145.43107561 47.0625 137.93994141 C46.1167879 128.09714717 44.74338552 118.63827136 42 109.125 C41.75088867 108.25834717 41.50177734 107.39169434 41.24511719 106.4987793 C39.86449026 101.95690369 39.86449026 101.95690369 37.4375 97.9296875 C35.62935413 95.50244821 35.21971314 93.06016844 34.56347656 90.14550781 C33.61143966 86.52050768 32.0040212 83.23852143 30.375 79.875 C30.02671143 79.14651855 29.67842285 78.41803711 29.31958008 77.66748047 C23.56144154 64.81947116 23.56144154 64.81947116 15 54 C15.72316406 55.51980469 15.72316406 55.51980469 16.4609375 57.0703125 C17.09913578 58.42179122 17.73714668 59.77335844 18.375 61.125 C18.69210937 61.79015625 19.00921875 62.4553125 19.3359375 63.140625 C21.67554299 68.11228666 23.72523222 72.88036288 24.4375 78.375 C24.9649662 81.77422663 25.9671753 84.58977886 27.19555664 87.78320312 C28.53669723 91.47897143 29.51838961 95.25812196 30.5 99.0625 C30.71503174 99.89177002 30.93006348 100.72104004 31.15161133 101.57543945 C34.20217733 113.51956983 36.37746239 125.46421234 37.74386597 137.72384644 C37.91118428 139.2107327 38.0823432 140.69719319 38.25784302 142.18313599 C39.72836723 154.68664449 40.34469844 167.04814704 40.31567383 179.63623047 C40.31250138 182.4987564 40.33615073 185.36025571 40.36132812 188.22265625 C40.40057498 199.99198723 39.38755833 211.21628551 37.36228943 222.8049469 C36.58855308 227.49289039 36.08085956 232.21553045 35.52734375 236.93359375 C35.01600084 239.9069581 34.14171799 242.22181955 33 245 C32.36946355 247.5386664 31.76891276 250.07544901 31.1875 252.625 C29.54359488 259.5243603 27.15915963 265.63913313 24 272 C23.44867704 273.30847316 22.90568175 274.62052016 22.375 275.9375 C21.14246378 278.6826943 19.81252542 280.63583641 18 283 C17.7215625 283.74894531 17.443125 284.49789063 17.15625 285.26953125 C11.48297381 298.66689632 -2.46988704 311.71780619 -14 320 C-14.81162598 320.58346191 -14.81162598 320.58346191 -15.63964844 321.17871094 C-23.90255261 327.05587932 -32.3888862 331.9480178 -41.5390625 336.30859375 C-44.91144052 337.89048257 -44.91144052 337.89048257 -47.62109375 339.59765625 C-50.17017107 341.10031431 -52.63928211 342.04741519 -55.4375 343 C-58.34751234 343.99346083 -61.02473104 345.01290925 -63.75390625 346.4375 C-67.89117824 348.42896666 -72.10191967 349.70902743 -76.5 351 C-77.81762329 351.39082764 -77.81762329 351.39082764 -79.16186523 351.78955078 C-97.03347795 357 -97.03347795 357 -104 357 C-104 357.66 -104 358.32 -104 359 C-107.99310826 360.02915161 -111.9933835 361.02476841 -116 362 C-116.76570313 362.18949219 -117.53140625 362.37898438 -118.3203125 362.57421875 C-124.71469653 364.00665245 -131.15911765 364.52071153 -137.67163086 365.11181641 C-143.34427663 365.65587401 -148.92479204 366.44187287 -154.5390625 367.41552734 C-181.76474448 372.11582677 -208.70028718 373.28294768 -236.27329636 373.31007385 C-238.33464263 373.31245341 -240.3959662 373.31776451 -242.45730591 373.32336426 C-266.28015494 373.37068464 -290.23800814 372.7807112 -313.8125 369.0625 C-315.54669189 368.80146484 -315.54669189 368.80146484 -317.31591797 368.53515625 C-329.28050866 366.70711599 -341.11154428 364.44980034 -352.9375 361.875 C-353.72656738 361.70419922 -354.51563477 361.53339844 -355.32861328 361.35742188 C-360.88042342 360.11957658 -360.88042342 360.11957658 -362 359 C-363.60444436 358.68745806 -365.21704731 358.41655219 -366.83203125 358.1640625 C-372.98357834 357.08602794 -378.77645921 355.36876716 -384.6875 353.375 C-386.25407349 352.84821655 -386.25407349 352.84821655 -387.85229492 352.31079102 C-419.89780287 341.23585952 -437.8212625 322.87645017 -452.5625 293 C-459.72658984 277.68987768 -465.20508012 260.06837656 -466.69140625 243.203125 C-467.03701864 240.73571503 -467.70361943 238.50554792 -468.4375 236.125 C-472.43266726 221.73064737 -472.18257445 206.81586572 -472.1875 192 C-472.18849701 191.18443634 -472.18949402 190.36887268 -472.19052124 189.52859497 C-472.19019714 187.18563722 -472.18116176 184.84291758 -472.16796875 182.5 C-472.16676025 181.78827133 -472.16555176 181.07654266 -472.16430664 180.34324646 C-472.13522369 177.28955988 -471.97356146 174.92068437 -471 172 C-468.60989413 172.37392777 -467.3321213 172.62921384 -465.69140625 174.4609375 C-462.8947137 179.20273456 -460.53843946 184.03807452 -458.31640625 189.07421875 C-455.62306733 195.06030435 -452.58165599 200.88124171 -449.61328125 206.734375 C-449.18402344 207.58515625 -448.75476563 208.4359375 -448.3125 209.3125 C-447.93738281 210.05113281 -447.56226563 210.78976562 -447.17578125 211.55078125 C-445.99177118 214.01714109 -444.90608714 216.51588638 -443.8371582 219.03393555 C-437.87204805 233.04298544 -431.30730312 246.64308433 -424 260 C-423.64019043 260.66290039 -423.28038086 261.32580078 -422.90966797 262.00878906 C-418.49940348 270.09945762 -413.70464249 277.74854556 -408 285 C-407.56042969 285.59039063 -407.12085938 286.18078125 -406.66796875 286.7890625 C-404.95960823 288.83452426 -403.57910257 289.91959927 -400.91796875 290.2890625 C-398.44118522 290.35037377 -398.44118522 290.35037377 -395 290 C-390.98322912 279.61688284 -391.5817383 268.93591898 -391.6875 258 C-391.69684842 256.00553456 -391.70604274 254.0110684 -391.71508789 252.01660156 C-391.80374479 239.24460028 -392.19907721 226.50072182 -392.9375 213.75 C-392.98079437 212.99589844 -393.02408875 212.24179687 -393.06869507 211.46484375 C-392.82699818 204.17350044 -392.82699818 204.17350044 -395 198 C-395.10379717 196.41598857 -395.13852123 194.82738451 -395.14526367 193.23999023 C-395.15164352 192.2248082 -395.15802338 191.20962616 -395.16459656 190.16368103 C-395.16570938 189.05650223 -395.1668222 187.94932343 -395.16796875 186.80859375 C-395.17296135 185.10788475 -395.17296135 185.10788475 -395.17805481 183.37281799 C-395.18313149 180.9642884 -395.18546291 178.55575174 -395.18530273 176.1472168 C-395.18747626 172.47758162 -395.20558832 168.80825327 -395.22460938 165.13867188 C-395.2275458 162.79948019 -395.22952893 160.46028708 -395.23046875 158.12109375 C-395.23765427 157.02808456 -395.24483978 155.93507538 -395.25224304 154.8089447 C-395.22424159 145.36860446 -393.46273629 138.33044107 -389 130 C-384.49067023 129.63437867 -384.49067023 129.63437867 -382.42797852 131.17138672 C-380.58943082 133.5257588 -380.13041813 135.53622086 -379.46484375 138.4453125 C-379.21283203 139.52296875 -378.96082031 140.600625 -378.70117188 141.7109375 C-378.3231543 143.40089844 -378.3231543 143.40089844 -377.9375 145.125 C-377.68162109 146.2284375 -377.42574219 147.331875 -377.16210938 148.46875 C-376.22118344 152.54206434 -375.29520835 156.61762172 -374.42211914 160.70605469 C-373.44831521 165.25753958 -372.14714341 168.87748465 -370 173 C-369.54370719 174.36887842 -369.10801795 175.74471166 -368.6875 177.125 C-361.82636087 198.31276643 -346.77768632 217.83041591 -326.91796875 228.19140625 C-307.79083208 237.71386422 -287.2985877 242.18315889 -265.96875 242.1328125 C-265.05218628 242.13376923 -264.13562256 242.13472595 -263.19128418 242.13571167 C-261.26863536 242.13638702 -259.34598418 242.13457819 -257.42333984 242.13037109 C-254.50743408 242.12501366 -251.59168231 242.13033822 -248.67578125 242.13671875 C-246.7942705 242.13605785 -244.91275984 242.13477645 -243.03125 242.1328125 C-241.74486633 242.13584885 -241.74486633 242.13584885 -240.43249512 242.13894653 C-234.57026085 242.11662549 -228.82194361 241.6792784 -223 241 C-223 240.34 -223 239.68 -223 239 C-224.01191406 238.60167969 -225.02382813 238.20335937 -226.06640625 237.79296875 C-230.0498353 236.08120605 -233.44304227 233.85915125 -236.9375 231.3125 C-237.85535278 230.64613525 -237.85535278 230.64613525 -238.79174805 229.96630859 C-251.75235317 220.38635727 -263.16300393 206.96164528 -267 191 C-267.33981953 187.69268662 -267.33380805 184.44589382 -267.25 181.125 C-267.24484375 180.28453125 -267.2396875 179.4440625 -267.234375 178.578125 C-267.18954421 175.07011563 -267.11890176 172.35670529 -266 169 C-262.2397015 169.58107632 -259.46964968 170.65199496 -256.1875 172.5625 C-255.39730469 173.01753906 -254.60710937 173.47257813 -253.79296875 173.94140625 C-253.20128906 174.29074219 -252.60960937 174.64007812 -252 175 C-252 175.66 -252 176.32 -252 177 C-251.12952026 177.43131226 -251.12952026 177.43131226 -250.24145508 177.87133789 C-248.18911302 178.90477405 -246.16077497 179.97104492 -244.13671875 181.05859375 C-243.41419922 181.44466797 -242.69167969 181.83074219 -241.94726562 182.22851562 C-240.45148981 183.02876215 -238.95668161 183.83082017 -237.46289062 184.63476562 C-234.08436833 186.43644433 -230.72297171 188.16514247 -227.19140625 189.6484375 C-224.7091728 190.69966489 -222.52684362 191.77260432 -220.25 193.1875 C-217.18352538 195.24353416 -217.18352538 195.24353416 -214 195 C-214.72445313 194.31035156 -215.44890625 193.62070312 -216.1953125 192.91015625 C-221.84884701 187.44614752 -227.32312437 182.05898064 -231 175 C-231 174.34 -231 173.68 -231 173 C-231.66 173 -232.32 173 -233 173 C-245.67883408 148.99755164 -245.67883408 148.99755164 -244 135 C-242.98046875 132.1796875 -242.98046875 132.1796875 -242 130 C-237.28205109 130.52520563 -233.96483601 132.70957429 -230.125 135.3125 C-225.50355484 138.39515628 -220.85121386 141.28902755 -216 144 C-216.21221191 143.11078857 -216.21221191 143.11078857 -216.42871094 142.20361328 C-217.87174884 135.68965396 -218.3054159 129.53414432 -218.25 122.875 C-218.25773438 121.93785156 -218.26546875 121.00070312 -218.2734375 120.03515625 C-218.24521667 109.94621024 -216.19798309 100.94598554 -209.3984375 93.16796875 C-203.06050505 87.22073077 -195.68321424 86.46196564 -187.28125 86.62109375 C-176.21660705 87.89879657 -166.79504807 93.45835249 -157.71484375 99.52734375 C-156.64943359 100.22537109 -156.64943359 100.22537109 -155.5625 100.9375 C-154.94503906 101.35902344 -154.32757813 101.78054688 -153.69140625 102.21484375 C-151.8167935 103.32019413 -151.8167935 103.32019413 -149 102 C-148.62875 101.01 -148.2575 100.02 -147.875 99 C-144.49305176 90.43944352 -136.12632995 84.65521669 -128 81 C-120.21094429 78.4036481 -112.40708949 79.92742954 -105 83 C-105 83.66 -105 84.32 -105 85 C-104.195625 85.37125 -104.195625 85.37125 -103.375 85.75 C-97.6073778 88.78559063 -93.76847195 92.06382571 -90.1875 97.5 C-89.79369141 98.06847656 -89.39988281 98.63695312 -88.99414062 99.22265625 C-87.06817289 102.07031352 -85.51322689 104.5672693 -85 108 C-82.53753725 105.65084075 -80.46704205 103.11927406 -78.375 100.4375 C-67.78081801 87.16100236 -55.35451894 72.01528061 -37.5 69.671875 C-28.33558592 69.09909912 -21.73914806 72.97907438 -14.625 78.4375 C-10.14368559 82.81211644 -7.23554086 87.15320083 -5 93 C-4.34 93.33 -3.68 93.66 -3 94 C-3.27992715 73.09482685 -3.27992715 73.09482685 -6.30078125 52.45703125 C-7.39451077 47.04948588 -7.74348461 41.66795289 -7.92382812 36.16064453 C-7.97889797 34.59856733 -8.04992789 33.0370252 -8.13085938 31.47607422 C-9.16090217 10.84909413 -9.16090217 10.84909413 -2 2 C-1.34 1.34 -0.68 0.68 0 0 Z " fill="#9B8350" transform="translate(609,447)"/>
<path d="M0 0 C2.33204653 0.01080902 4.66333666 -0.00000668 6.99536133 -0.01269531 C8.50512862 -0.01137484 10.01489545 -0.00881478 11.5246582 -0.00488281 C12.20816849 -0.00893127 12.89167877 -0.01297974 13.59590149 -0.01715088 C18.55990068 0.03039766 22.75759293 0.94571368 27.50512695 2.26074219 C29.71143108 2.72874609 31.91975619 3.18733762 34.13012695 3.63574219 C51.92956071 7.48630898 68.70535429 13.35408241 83.50512695 24.26074219 C84.25020508 24.74414062 84.9952832 25.22753906 85.76293945 25.72558594 C97.04418445 33.14363932 109.99527114 43.59061292 115.50512695 56.26074219 C115.31762695 58.88574219 115.31762695 58.88574219 114.50512695 61.26074219 C110.87321136 63.68201925 109.06655675 63.53870734 104.73950195 63.60449219 C104.06904846 63.61911499 103.39859497 63.63373779 102.70782471 63.64880371 C100.55698733 63.69524034 98.40623326 63.72936384 96.25512695 63.76074219 C82.62955777 63.96556689 69.33436575 64.76076252 56.06762695 68.19824219 C54.81079102 68.51664063 53.55395508 68.83503906 52.2590332 69.16308594 C48.24566905 70.33660865 44.39134192 71.7266219 40.50512695 73.26074219 C39.88178467 73.5031665 39.25844238 73.74559082 38.61621094 73.99536133 C25.37431399 79.23560933 13.26203272 86.17575962 2.9230957 96.08105469 C1.50512695 97.26074219 1.50512695 97.26074219 -0.49487305 97.26074219 C-0.49487305 97.92074219 -0.49487305 98.58074219 -0.49487305 99.26074219 C-2.15380487 100.603687 -3.82204409 101.93514842 -5.49487305 103.26074219 C-10.54125707 108.81772156 -15.07447853 114.56866596 -18.49487305 121.26074219 C-19.15487305 121.26074219 -19.81487305 121.26074219 -20.49487305 121.26074219 C-20.86612305 122.21980469 -20.86612305 122.21980469 -21.24487305 123.19824219 C-23.51622694 128.76305922 -25.80497343 134.17975162 -28.93237305 139.32324219 C-36.26399502 152.42181071 -38.53831615 168.52701667 -41.76538086 183.00830078 C-42.98184792 188.43191999 -44.2388553 193.84616788 -45.49487305 199.26074219 C-46.48487305 199.26074219 -47.47487305 199.26074219 -48.49487305 199.26074219 C-60.79031559 174.03807547 -58.32876477 146.16979587 -49.47827148 120.2878418 C-44.89930921 107.49688907 -38.50255884 95.54186381 -29.49487305 85.26074219 C-28.83487305 85.26074219 -28.17487305 85.26074219 -27.49487305 85.26074219 C-27.22545898 84.66777344 -26.95604492 84.07480469 -26.6784668 83.46386719 C-22.1006758 74.94283047 -11.40418362 67.42885443 -2.49487305 64.26074219 C-17.43915665 63.41483934 -30.81272326 70.28022811 -41.90893555 79.86621094 C-52.63048343 89.79416993 -60.99248582 101.70731597 -66.49487305 115.26074219 C-66.82487305 115.92074219 -67.15487305 116.58074219 -67.49487305 117.26074219 C-68.15487305 117.26074219 -68.81487305 117.26074219 -69.49487305 117.26074219 C-69.57737305 118.08574219 -69.65987305 118.91074219 -69.74487305 119.76074219 C-70.47302404 123.15878015 -71.72686502 125.59292592 -73.3347168 128.63574219 C-74.83185386 132.02320383 -75.81241959 135.51491576 -76.80737305 139.07324219 C-79.49658227 148.67463527 -82.94765328 157.94801247 -86.49487305 167.26074219 C-88.43383789 166.87719727 -88.43383789 166.87719727 -90.49487305 166.26074219 C-92.12430684 163.15178251 -92.71821271 159.67069469 -93.49487305 156.26074219 C-93.70241211 155.42800781 -93.90995117 154.59527344 -94.1237793 153.73730469 C-98.12089235 134.67415014 -96.34493625 114.02039087 -88.49487305 96.26074219 C-87.86786097 94.59483144 -87.24288949 92.92815134 -86.61987305 91.26074219 C-79.46010662 73.50008128 -63.05825601 54.24840008 -46.49487305 44.26074219 C-45.17487305 44.26074219 -43.85487305 44.26074219 -42.49487305 44.26074219 C-42.49487305 43.60074219 -42.49487305 42.94074219 -42.49487305 42.26074219 C-51.7035826 42.72660567 -51.7035826 42.72660567 -60.49487305 45.26074219 C-61.12135742 45.504375 -61.7478418 45.74800781 -62.39331055 45.99902344 C-79.63438622 53.06350751 -92.29149975 64.64089466 -103.49487305 79.26074219 C-104.39399414 80.39576172 -104.39399414 80.39576172 -105.3112793 81.55371094 C-107.98119825 84.98278757 -110.18061123 88.05510436 -111.49487305 92.26074219 C-112.81487305 92.26074219 -114.13487305 92.26074219 -115.49487305 92.26074219 C-115.71385925 86.23862174 -115.04979229 81.07284824 -113.49487305 75.26074219 C-113.27484619 74.43767578 -113.05481934 73.61460937 -112.828125 72.76660156 C-109.16317631 59.85166539 -102.83183028 48.7456491 -94.49487305 38.26074219 C-93.73174805 37.22949219 -92.96862305 36.19824219 -92.18237305 35.13574219 C-84.4328277 26.84553089 -75.21189205 20.9582714 -65.49487305 15.26074219 C-64.87225586 14.86113281 -64.24963867 14.46152344 -63.6081543 14.04980469 C-45.60690097 2.71400285 -20.7333594 -0.11436668 0 0 Z " fill="#9B8250" transform="translate(350.494873046875,449.7392578125)"/>
<path d="M0 0 C2.875 2.125 2.875 2.125 5 5 C5.44986331 8.52787542 5.49585989 10.29845008 3.41796875 13.23828125 C2.31388672 14.26501953 2.31388672 14.26501953 1.1875 15.3125 C-0.05386719 16.47265625 -0.05386719 16.47265625 -1.3203125 17.65625 C-4.80951236 20.70802831 -8.3677484 23.65532483 -11.984375 26.5546875 C-15.35634137 29.28895038 -18.65037752 32.10240752 -21.9375 34.9375 C-28.23450369 40.36187543 -34.59788783 45.70008297 -41 51 C-36.68672874 49.9420278 -34.01641608 49.22118584 -31 46 C-28.70286381 44.74252848 -26.41914157 43.57123101 -24.0625 42.4375 C-22.62623604 41.73190524 -21.19004151 41.02616917 -19.75390625 40.3203125 C-18.98836426 39.94680664 -18.22282227 39.57330078 -17.43408203 39.18847656 C-13.11461659 37.07943366 -8.80617129 34.94852475 -4.5 32.8125 C-3.67636963 32.40894287 -2.85273926 32.00538574 -2.00415039 31.58959961 C2.58417536 29.31472322 6.92333283 26.88166337 11.17504883 24.0222168 C14.50130881 22.15906622 17.1911172 22 21 22 C23.9375 22.875 23.9375 22.875 26 25 C27.12570453 29.23516807 27.38973687 32.83078939 26 37 C24.22802734 37.9987793 24.22802734 37.9987793 21.9609375 38.88671875 C17.26379206 40.84339835 12.9810861 43.19449428 8.625 45.8125 C7.88024414 46.25553467 7.13548828 46.69856934 6.36816406 47.1550293 C1.60286668 50.00232033 -3.10439278 52.92866651 -7.76953125 55.9375 C-12.46694349 58.93657335 -17.20173039 61.87447982 -21.9375 64.8125 C-23.32533691 65.67645386 -23.32533691 65.67645386 -24.74121094 66.55786133 C-25.61938477 67.1020874 -26.49755859 67.64631348 -27.40234375 68.20703125 C-28.19116943 68.6966333 -28.97999512 69.18623535 -29.79272461 69.69067383 C-32 71 -32 71 -34.22485352 72.04956055 C-36.17846621 72.87574415 -36.17846621 72.87574415 -37 75 C-36.175 74.56429687 -35.35 74.12859375 -34.5 73.6796875 C-27.30837763 69.97150721 -20.13567093 66.75149196 -12.5078125 64.04248047 C-8.50358492 62.61342068 -4.79713838 60.90100014 -1 59 C1.74233485 57.85508744 4.51908396 56.82533214 7.3125 55.8125 C8.02083984 55.53986328 8.72917969 55.26722656 9.45898438 54.98632812 C14.62770327 53.1165921 19.50203248 52.27980331 25 53 C27.625 54.5625 27.625 54.5625 29 57 C28.94154275 60.33206337 28.8904738 62.83621246 26.81640625 65.546875 C24.38810817 67.48951347 21.87564026 68.51398504 19 69.6875 C17.948125 70.12449219 16.89625 70.56148437 15.8125 71.01171875 C13 72 13 72 10 72 C10 72.66 10 73.32 10 74 C9.28457031 74.31227539 8.56914063 74.62455078 7.83203125 74.94628906 C4.55373413 76.37868861 1.27686105 77.8143184 -2 79.25 C-3.12535156 79.74113281 -4.25070312 80.23226562 -5.41015625 80.73828125 C-11.35881193 83.34734076 -17.21216602 86.05249196 -23 89 C-24.65697379 89.69040574 -26.31923769 90.36971413 -28 91 C-22.5645519 91.21371356 -17.94041859 90.47178039 -12.6875 89.125 C-11.18384205 88.756797 -9.67993638 88.38960414 -8.17578125 88.0234375 C-7.45729004 87.84651367 -6.73879883 87.66958984 -5.99853516 87.48730469 C0.33272516 85.94354759 6.44214793 84.46466514 13 85 C13.99 85.66 14.98 86.32 16 87 C16.70295797 90.86626882 16.25814724 92.58541664 14.17578125 95.9296875 C10.34291255 100.30005138 5.0612254 101.60684192 -0.3125 103.375 C-1.41029785 103.75293701 -2.5080957 104.13087402 -3.63916016 104.52026367 C-7.08617348 105.7008522 -10.5416557 106.85307272 -14 108 C-16.19936756 108.73783782 -18.39859017 109.47610787 -20.59765625 110.21484375 C-24.57899881 111.54875013 -28.5650361 112.86697714 -32.5546875 114.17578125 C-41.91303182 116.5106901 -41.91303182 116.5106901 -50 121 C-51.34802888 121.28122144 -52.70424735 121.52324664 -54.0625 121.75 C-58.58599564 122.61892007 -62.93160327 123.84450782 -67.3125 125.25 C-89.78114421 132.40713476 -112.76737629 139.11855672 -136.27734375 141.67578125 C-138.85331636 141.90194886 -138.85331636 141.90194886 -140.68041992 142.50976562 C-144.05114442 143.22215535 -147.4062175 143.16271246 -150.8359375 143.16796875 C-151.97139511 143.17296135 -151.97139511 143.17296135 -153.12979126 143.17805481 C-154.72844843 143.18310805 -156.3271161 143.18546363 -157.92578125 143.18530273 C-160.3595537 143.18748614 -162.79287035 143.20565002 -165.2265625 143.22460938 C-166.78385263 143.22754433 -168.34114489 143.22952844 -169.8984375 143.23046875 C-170.62050385 143.23765427 -171.34257019 143.24483978 -172.08651733 143.25224304 C-176.42578086 143.23282053 -180.02552625 142.78413026 -184 141 C-185.72265625 138.0859375 -185.72265625 138.0859375 -187.0625 134.375 C-187.30871094 133.70259277 -187.55492187 133.03018555 -187.80859375 132.33740234 C-188.56672326 130.23349525 -189.28673054 128.1194859 -190 126 C-190.42152344 124.78828125 -190.84304688 123.5765625 -191.27734375 122.328125 C-194.00279534 114.07340261 -196.16885281 105.68812855 -198.25 97.25 C-198.50845703 96.22084473 -198.76691406 95.19168945 -199.03320312 94.13134766 C-200.72061091 87.09710706 -201.59832868 80.22044371 -202 73 C-196.21246173 73.41339559 -190.84787515 74.50439466 -185.25 76 C-178.15415086 77.85698124 -171.35075828 78.78485586 -164 79 C-162.32164062 79.07734375 -162.32164062 79.07734375 -160.609375 79.15625 C-151.48725046 79.40168833 -139.81365702 79.20910468 -132 74 C-130.68 74 -129.36 74 -128 74 C-128 73.34 -128 72.68 -128 72 C-126.14677016 70.68766499 -124.24038057 69.44998356 -122.3125 68.25 C-117.58780578 65.20037405 -114.34360382 62.45813843 -111 58 C-110.34 58 -109.68 58 -109 58 C-108.77441406 57.46503906 -108.54882812 56.93007813 -108.31640625 56.37890625 C-106.57353921 53.22933348 -104.28798202 50.63995369 -101.9375 47.9375 C-100.93798808 46.77413636 -99.93930205 45.61006269 -98.94140625 44.4453125 C-98.44398926 43.86555664 -97.94657227 43.28580078 -97.43408203 42.68847656 C-95.37366853 40.26256241 -93.37481459 37.78846092 -91.375 35.3125 C-71.44178948 10.8587221 -71.44178948 10.8587221 -63.796875 9.65234375 C-61.40020842 9.50158569 -59.35396205 9.52468074 -57 10 C-54.875 12.0625 -54.875 12.0625 -54 15 C-54.35615197 20.29854166 -55.6202395 23.55577741 -58.5625 27.9375 C-63.33164888 35.33701129 -67.17702403 43.07952584 -71 51 C-66.24049053 48.828185 -62.61407386 46.84610584 -59 43 C-56.34309555 40.86983098 -53.60305855 38.85035557 -50.875 36.8125 C-45.12255489 32.46869293 -39.61029492 28.02242159 -34.32421875 23.11328125 C-30.89906714 19.99898373 -27.28938864 17.12481924 -23.6875 14.21875 C-20.2774567 11.40348169 -17.01867876 8.44047414 -13.77734375 5.43359375 C-12 4 -12 4 -10 4 C-10 3.34 -10 2.68 -10 2 C-6.58459721 -0.10178633 -3.97748585 -0.56821226 0 0 Z " fill="#FCFBFA" transform="translate(592,637)"/>
<path d="M0 0 C6.20310338 5.7794768 6.73356381 12.591964 7.4765625 20.6796875 C7.60611328 21.99839844 7.60611328 21.99839844 7.73828125 23.34375 C7.94890557 25.49679858 8.15108958 27.65066999 8.3515625 29.8046875 C8.65449219 29.12921875 8.95742188 28.45375 9.26953125 27.7578125 C13.47351372 18.80656367 13.47351372 18.80656367 18.3515625 15.8046875 C19.2796875 15.1859375 19.2796875 15.1859375 20.2265625 14.5546875 C24.32961406 13.10655165 27.99316162 13.2225157 31.9765625 14.9296875 C37.10703719 18.98006225 40.45568711 23.27759534 41.3515625 29.8046875 C41.54685547 31.18333984 41.54685547 31.18333984 41.74609375 32.58984375 C42.58624156 44.53703045 37.79419124 54.93147181 33.3515625 65.8046875 C34.02703125 65.78148437 34.7025 65.75828125 35.3984375 65.734375 C36.29046875 65.71632813 37.1825 65.69828125 38.1015625 65.6796875 C38.98328125 65.65648437 39.865 65.63328125 40.7734375 65.609375 C45.69408647 65.98215144 48.02850295 68.38092918 51.3515625 71.8046875 C52.2384375 72.4234375 53.1253125 73.0421875 54.0390625 73.6796875 C56.92559064 76.33217282 56.88127909 78.01141255 57.3515625 81.8046875 C49.36542031 83.11243415 41.4219983 84.19010521 33.3515625 84.8046875 C33.1020842 92.09499774 33.62825343 98.71142429 35.3515625 105.8046875 C36.0115625 105.8046875 36.6715625 105.8046875 37.3515625 105.8046875 C43.66560777 113.57582014 45.69169372 119.96464613 45.65234375 129.97265625 C45.34052056 132.90865382 44.57780697 135.13235394 43.3515625 137.8046875 C42.6915625 137.8046875 42.0315625 137.8046875 41.3515625 137.8046875 C41.1246875 138.3821875 40.8978125 138.9596875 40.6640625 139.5546875 C38.44107382 143.36552524 35.49367258 145.42398414 31.3515625 146.8046875 C26.38938282 147.34998197 21.04575583 147.87409024 16.6640625 145.1171875 C13.95144183 142.33400733 13.90799255 139.58757788 13.7890625 135.8046875 C14.09555548 128.92824239 15.53127481 122.42490047 17.3515625 115.8046875 C18.0115625 115.8046875 18.6715625 115.8046875 19.3515625 115.8046875 C20.7385478 104.88217829 21.68117679 94.67235154 15.5390625 84.9296875 C13.02665199 82.48906014 10.26974872 80.72803751 7.3515625 78.8046875 C7.3515625 78.1446875 7.3515625 77.4846875 7.3515625 76.8046875 C-2.48307804 75.23721266 -14.65627038 73.54823687 -23.6484375 78.8046875 C-31.82113185 85.00717875 -37.20972857 91.4422571 -40.33984375 101.29296875 C-40.68691628 102.34692085 -40.68691628 102.34692085 -41.04100037 103.42216492 C-41.77289665 105.65114074 -42.49215372 107.88395314 -43.2109375 110.1171875 C-43.69642203 111.60379138 -44.1827434 113.09012226 -44.66992188 114.57617188 C-47.12102552 122.0307381 -47.12102552 122.0307381 -49.47998047 129.51464844 C-51.24842761 135.18608946 -53.75940816 140.24554433 -56.6484375 145.4296875 C-57.12756592 146.29343994 -57.60669434 147.15719238 -58.1003418 148.04711914 C-61.27583847 153.65510943 -64.66936507 159.03075294 -68.4609375 164.2421875 C-68.89212891 164.83789551 -69.32332031 165.43360352 -69.76757812 166.04736328 C-72.67618628 169.90360755 -75.7711273 172.91157598 -79.6484375 175.8046875 C-80.3084375 175.8046875 -80.9684375 175.8046875 -81.6484375 175.8046875 C-81.6484375 176.4646875 -81.6484375 177.1246875 -81.6484375 177.8046875 C-87.1170251 181.69579791 -92.77783422 184.24095484 -99.01171875 186.69140625 C-101.80513617 187.77382832 -101.80513617 187.77382832 -104.6484375 189.8046875 C-112.6063603 191.13100797 -120.60502738 190.9000639 -128.6484375 190.8046875 C-127.21322537 187.17036 -125.70502343 186.01350774 -122.2734375 184.2421875 C-109.38787765 176.84182268 -97.56348455 164.4350133 -91.6484375 150.8046875 C-90.9884375 150.8046875 -90.3284375 150.8046875 -89.6484375 150.8046875 C-89.47828125 150.27101563 -89.308125 149.73734375 -89.1328125 149.1875 C-87.82094192 145.15419576 -86.42493305 141.21188429 -84.7734375 137.3046875 C-82.31344946 131.28195817 -80.60663663 125.05676489 -78.8125 118.8125 C-77.25772519 113.40972035 -75.46241015 108.10296322 -73.5859375 102.8046875 C-72.82706434 100.3762934 -72.24032109 98.0367155 -71.7109375 95.5546875 C-68.91427387 82.65534748 -64.53292801 70.95699353 -54.6484375 61.8046875 C-55.14472656 61.464375 -55.64101563 61.1240625 -56.15234375 60.7734375 C-63.53442723 55.50652405 -71.01749751 49.18697668 -72.6484375 39.8046875 C-72.67322286 36.71643185 -72.47158678 33.78782999 -71.6484375 30.8046875 C-69.6484375 28.8046875 -69.6484375 28.8046875 -66.4609375 28.4921875 C-62.12601941 28.84750866 -59.51936867 29.90872121 -55.6484375 31.8046875 C-55.6484375 32.4646875 -55.6484375 33.1246875 -55.6484375 33.8046875 C-54.95363281 33.85496094 -54.25882813 33.90523438 -53.54296875 33.95703125 C-49.59732312 35.11250372 -47.21205312 37.56795468 -44.3359375 40.3671875 C-43.78615234 40.88732422 -43.23636719 41.40746094 -42.66992188 41.94335938 C-41.32113404 43.22177567 -39.98363314 44.51208183 -38.6484375 45.8046875 C-38.97457031 45.09183594 -39.30070313 44.37898438 -39.63671875 43.64453125 C-40.54409034 41.65580826 -41.44343978 39.6634111 -42.3359375 37.66796875 C-43.30506912 35.55376196 -44.36056593 33.47865525 -45.4609375 31.4296875 C-47.27300984 25.89809827 -47.44831224 20.56227643 -46.6484375 14.8046875 C-44.28846721 11.12591029 -43.03057018 10.14254215 -38.8359375 9.1171875 C-34.04293104 10.15097321 -30.96935147 12.2070307 -27.6484375 15.8046875 C-25.32415785 19.67520404 -23.42089476 23.65552619 -21.6484375 27.8046875 C-21.55046875 26.83789062 -21.4525 25.87109375 -21.3515625 24.875 C-20.33201349 15.9978922 -19.31868593 7.5071933 -13.6484375 0.2421875 C-9.38146268 -2.82470066 -4.4395344 -3.21918845 0 0 Z " fill="#9B8351" transform="translate(609.6484375,319.1953125)"/>
<path d="M0 0 C3.04777557 1.61880121 5.44885203 3.69710038 8 6 C8.8146875 6.57492187 9.629375 7.14984375 10.46875 7.7421875 C13.66617579 10.59421236 15.27545079 13.58817349 17.1875 17.375 C17.52974609 18.02210938 17.87199219 18.66921875 18.22460938 19.3359375 C21.69767483 26.02580339 24.17021926 32.36636041 23 40 C21.89427301 42.35087173 20.66531789 43.97039382 19 46 C17.2425194 43.3637791 16.39520342 41.4366603 15.375 38.5 C12.03854515 29.99701993 6.52677504 22.2512384 -1 17 C-1.99 16.67 -2.98 16.34 -4 16 C-3.02325896 17.98036486 -2.04354018 19.95926133 -1.0625 21.9375 C-0.51722656 23.03964844 0.02804687 24.14179687 0.58984375 25.27734375 C1.74704978 27.84794414 1.74704978 27.84794414 3 29 C5.57148045 38.3932317 6.39893859 47.85520055 6.625 57.5625 C6.67213135 58.58480713 6.7192627 59.60711426 6.76782227 60.66040039 C6.81920076 67.84098838 6.81920076 67.84098838 4.45678711 71.18334961 C2.7137954 72.91598646 0.90138945 74.44716627 -1 76 C-1.556875 76.804375 -2.11375 77.60875 -2.6875 78.4375 C-3.120625 78.953125 -3.55375 79.46875 -4 80 C-5.32 80 -6.64 80 -8 80 C-8.99 77.03 -9.98 74.06 -11 71 C-11.66 71 -12.32 71 -13 71 C-14.1484375 69.42578125 -14.1484375 69.42578125 -15.375 67.3125 C-15.82359375 66.57902344 -16.2721875 65.84554687 -16.734375 65.08984375 C-17.15203125 64.40019531 -17.5696875 63.71054687 -18 63 C-21.51409397 57.32338667 -26.86722052 54.32291044 -33 52 C-37.6779779 51.26563854 -42.26818334 51.01381552 -47 51 C-47.53394179 49.5882217 -48.05165104 48.17029756 -48.5625 46.75 C-48.85253906 45.96109375 -49.14257812 45.1721875 -49.44140625 44.359375 C-50.3833563 40.38078878 -49.35461261 38.58416096 -47.25 35.1171875 C-42.26745011 27.93747152 -37.05677221 21.32813297 -31 15 C-30.34257813 14.27941406 -29.68515625 13.55882812 -29.0078125 12.81640625 C-21.21127634 4.53454354 -11.77429618 -1.86921319 0 0 Z " fill="#FBFAF8" transform="translate(579,526)"/>
<path d="M0 0 C13.63584846 7.7118595 21.8804849 23.945553 26.0625 38.5625 C26.1875 41.43359375 26.1875 41.43359375 26.0625 43.5625 C23.41511084 45.0231285 22.16801666 45.5625 19.0625 45.5625 C18.89234375 44.80066406 18.7221875 44.03882813 18.546875 43.25390625 C15.64868494 30.66458763 15.64868494 30.66458763 8.0625 20.5625 C7.588125 19.7375 7.11375 18.9125 6.625 18.0625 C4.19859045 14.18024472 1.3879041 12.00430137 -2.9375 10.5625 C-2.4425 13.0375 -2.4425 13.0375 -1.9375 15.5625 C-1.2775 15.5625 -0.6175 15.5625 0.0625 15.5625 C6.56713201 30.01172072 7.35859827 41.91484547 7.0625 57.5625 C6.4025 57.5625 5.7425 57.5625 5.0625 57.5625 C4.80339844 58.14128906 4.54429687 58.72007812 4.27734375 59.31640625 C2.97150822 61.73073238 1.48150584 63.48379473 -0.375 65.5 C-2.96813078 68.37826757 -4.95795372 71.22852731 -6.9375 74.5625 C-7.5975 74.5625 -8.2575 74.5625 -8.9375 74.5625 C-10.4453125 72.4453125 -10.4453125 72.4453125 -12.0625 69.6875 C-12.60132813 68.78257812 -13.14015625 67.87765625 -13.6953125 66.9453125 C-14.9375 64.5625 -14.9375 64.5625 -14.9375 62.5625 C-15.5975 62.5625 -16.2575 62.5625 -16.9375 62.5625 C-17.19402344 62.02882813 -17.45054687 61.49515625 -17.71484375 60.9453125 C-21.93154257 52.73907709 -27.68241192 45.92482623 -35.0625 40.375 C-36.74609375 38.96484375 -36.74609375 38.96484375 -37.9375 37.5625 C-38.11812034 34.55216093 -37.86854935 33.32495411 -36.9375 30.5625 C-36.55464844 29.17804687 -36.55464844 29.17804687 -36.1640625 27.765625 C-32.92031682 16.84224211 -26.90697616 6.75922625 -17.15234375 0.3984375 C-11.46338842 -2.37476624 -5.7127914 -2.47100898 0 0 Z " fill="#FAF9F7" transform="translate(497.9375,537.4375)"/>
<path d="M0 0 C6.91201665 6.00254078 12.15246638 13.97347862 14 23 C14 25.8125 14 25.8125 13 28 C8.78378378 32 8.78378378 32 6 32 C5.52820313 30.80503906 5.52820313 30.80503906 5.046875 29.5859375 C1.57422919 20.9880012 -1.61468602 14.70683353 -9 9 C-8.7834375 9.93199219 -8.566875 10.86398437 -8.34375 11.82421875 C-6.47959706 20.35962273 -5.59996756 28.21410228 -6 37 C-17.86928882 42.79662942 -29.88673578 43.41980434 -42.8125 43.1875 C-44.29490807 43.17240486 -45.77733124 43.15872511 -47.25976562 43.14648438 C-50.84016544 43.1139095 -54.41998085 43.06240312 -58 43 C-57.09960815 38.1774279 -55.62774042 35.14068187 -53 31 C-52.01 30.505 -52.01 30.505 -51 30 C-50.31426722 28.75024458 -49.67672979 27.47390578 -49.0625 26.1875 C-43.23053631 15.41552001 -31.19177997 2.17109079 -19.27734375 -1.60546875 C-13.0292199 -2.6879053 -5.55401784 -3.50520237 0 0 Z " fill="#FBFAF8" transform="translate(549,588)"/>
<path d="M0 0 C9.66008021 0.15093875 15.88475923 5.63841218 22.4375 12.3125 C26.20402319 16.68494214 28.9038144 21.12996127 31.4375 26.3125 C32.035625 27.034375 32.63375 27.75625 33.25 28.5 C35.3427876 31.19072691 37.04495006 33.86418447 38.75 36.8125 C39.28238281 37.7303125 39.81476563 38.648125 40.36328125 39.59375 C41.60350179 42.73263545 41.40874778 44.13436143 40.4375 47.3125 C40.1590625 48.4571875 40.1590625 48.4571875 39.875 49.625 C39.730625 50.181875 39.58625 50.73875 39.4375 51.3125 C37.125 51.625 37.125 51.625 34.4375 51.3125 C32.10786948 48.53486361 31.20382871 45.59771139 30.1875 42.1875 C27.68097599 34.29854547 22.82037769 26.63156474 16.4375 21.3125 C15.4475 20.9825 14.4575 20.6525 13.4375 20.3125 C13.870625 21.12074219 14.30375 21.92898438 14.75 22.76171875 C15.306875 23.83035156 15.86375 24.89898438 16.4375 26 C16.994375 27.05574219 17.55125 28.11148438 18.125 29.19921875 C19.4047274 32.23476262 19.72601043 34.07276826 19.4375 37.3125 C20.0975 37.3125 20.7575 37.3125 21.4375 37.3125 C21.4375 40.9425 21.4375 44.5725 21.4375 48.3125 C17.40811432 47.8211115 14.19465114 46.80271545 10.51953125 45.11328125 C8.04540421 44.16169393 5.59427231 43.66913019 3 43.125 C-5.13882638 41.21665668 -12.23397888 37.21288236 -19.5625 33.3125 C-20.2225 32.9825 -20.8825 32.6525 -21.5625 32.3125 C-21.18711275 21.0508826 -13.13938573 0.38114249 0 0 Z " fill="#F9F8F5" transform="translate(442.5625,577.6875)"/>
<path d="M0 0 C4.25606449 1.12967392 8.11282762 2.88276149 12.05859375 4.8125 C12.73792969 5.13734375 13.41726563 5.4621875 14.1171875 5.796875 C15.7674937 6.58716248 17.41351771 7.38638224 19.05859375 8.1875 C19.05859375 8.8475 19.05859375 9.5075 19.05859375 10.1875 C20.20328125 10.3421875 20.20328125 10.3421875 21.37109375 10.5 C24.34019687 11.25953801 25.48056385 11.55745016 27.05859375 14.1875 C26.74609375 17.875 26.74609375 17.875 26.05859375 21.1875 C21.38424806 20.34611778 17.35588405 17.88420562 13.19140625 15.71484375 C7.39090138 12.7399067 3.57363214 12.0622108 -2.94140625 12.1875 C-1.91015625 12.703125 -0.87890625 13.21875 0.18359375 13.75 C4.3014289 16.0982563 7.51531095 19.17228064 10.05859375 23.1875 C10.05859375 24.1775 10.05859375 25.1675 10.05859375 26.1875 C9.39859375 26.373125 8.73859375 26.55875 8.05859375 26.75 C-4.60996803 32.82035252 -8.78539373 46.00344581 -13.94140625 58.1875 C-20.43743766 56.83926706 -20.43743766 56.83926706 -22.56640625 54.0859375 C-24.20741746 50.62676047 -24.99854332 47.24674939 -25.62890625 43.5 C-25.75483154 42.76394531 -25.88075684 42.02789063 -26.01049805 41.26953125 C-27.93585008 28.92224996 -29.58192521 13.36638398 -22.19140625 2.625 C-16.43249628 -3.44781282 -7.4920187 -1.68867723 0 0 Z " fill="#FAF9F6" transform="translate(426.94140625,544.8125)"/>
<path d="M0 0 C2 2 2 2 2.1953125 5.0390625 C2.13020833 8.359375 2.06510417 11.6796875 2 15 C1.38799744 14.97036163 0.77599487 14.94072327 0.14544678 14.91018677 C-15.66053268 14.16414571 -31.43232981 13.84062037 -47.25537109 13.86962891 C-50.81742397 13.87510363 -54.3793566 13.86958062 -57.94140625 13.86328125 C-60.22656278 13.86394033 -62.51171923 13.86521793 -64.796875 13.8671875 C-65.85195251 13.86516327 -66.90703003 13.86313904 -67.99407959 13.86105347 C-69.46412445 13.86578171 -69.46412445 13.86578171 -70.96386719 13.87060547 C-72.24641388 13.87179886 -72.24641388 13.87179886 -73.55487061 13.87301636 C-76.12070364 14.00626854 -78.49096699 14.4625947 -81 15 C-82.43628457 15.06266512 -83.8750555 15.08686347 -85.3125 15.0625 C-87.1378125 15.0315625 -87.1378125 15.0315625 -89 15 C-89 14.67 -89 14.34 -89 14 C-76.25278925 10.84612501 -63.86653925 10.53559366 -50.78466797 10.60888672 C-47.40160172 10.62487429 -44.01974739 10.60901244 -40.63671875 10.58984375 C-26.52031574 10.57827356 -12.92535253 11.69515027 1 14 C0.67 9.38 0.34 4.76 0 0 Z " fill="#D0DCB1" transform="translate(661,245)"/>
<path d="M0 0 C1.875 1.1875 1.875 1.1875 3 3 C3.4375 5.4375 3.4375 5.4375 3 8 C1.3125 10.375 1.3125 10.375 -1 12 C-4.52324572 11.82813436 -6.02591724 10.98272184 -9 9 C-9.39964378 5.8694571 -9.52149743 3.86916239 -7.875 1.125 C-5.11909116 -0.52854531 -3.14924548 -0.39365568 0 0 Z " fill="#A49063" transform="translate(608,404)"/>
<path d="M0 0 C0.91160889 -0.00064453 1.82321777 -0.00128906 2.76245117 -0.00195312 C10.62117819 0.05868414 18.19493419 0.85544567 25.9375 2.1875 C25.9375 2.5175 25.9375 2.8475 25.9375 3.1875 C25.22956299 3.18226318 24.52162598 3.17702637 23.79223633 3.17163086 C11.56226456 3.09359453 -0.65586022 3.04187162 -12.875 3.625 C-13.72022217 3.66423584 -14.56544434 3.70347168 -15.4362793 3.74389648 C-19.71932639 3.9712956 -23.83170606 4.45277457 -28.0625 5.1875 C-30.74060075 5.29946073 -33.37982686 5.23375299 -36.0625 5.1875 C-36.0625 4.8575 -36.0625 4.5275 -36.0625 4.1875 C-33.22950602 3.70625423 -30.39613343 3.22745391 -27.5625 2.75 C-26.77101563 2.61529297 -25.97953125 2.48058594 -25.1640625 2.34179688 C-16.71356411 0.92183608 -8.58201064 -0.00632251 0 0 Z " fill="#D4DFB7" transform="translate(489.0625,205.8125)"/>
<path d="M0 0 C1.62186426 2.43279638 2.69322873 4.46732608 3.8125 7.125 C5.62283749 11.28333161 7.70537549 15.21346099 9.94921875 19.15234375 C10.66769442 20.41568573 11.35003996 21.70007992 12 23 C11.01 23 10.02 23 9 23 C8.67 24.32 8.34 25.64 8 27 C3.22958307 17.86420154 -0.36583331 10.42624933 0 0 Z " fill="#DEE7C5" transform="translate(348,315)"/>
<path d="M0 0 C-0.66 1.65 -1.32 3.3 -2 5 C-1.34 5.33 -0.68 5.66 0 6 C-0.845625 6.31453125 -1.69125 6.6290625 -2.5625 6.953125 C-10.2512761 9.84204081 -10.2512761 9.84204081 -17.6875 13.3125 C-21 15 -21 15 -23 15 C-21.6328261 10.89847829 -18.92541545 9.99601744 -15.3125 8.0625 C-14.0782299 7.3889078 -12.84514526 6.71313867 -11.61328125 6.03515625 C-11.0095166 5.70402832 -10.40575195 5.37290039 -9.78369141 5.03173828 C-8.01721483 4.00995755 -6.34708824 2.90479334 -4.66796875 1.74609375 C-2 0 -2 0 0 0 Z " fill="#A79469" transform="translate(578,697)"/>
<path d="M0 0 C8.7641489 -0.25819097 17.4388415 -0.09819618 26 2 C26.66 2.66 27.32 3.32 28 4 C22.72 3.67 17.44 3.34 12 3 C12 3.66 12 4.32 12 5 C12.99 5.33 13.98 5.66 15 6 C11.8568669 7.57156655 9.634536 6.11705576 6.375 5.0625 C5.18648437 4.68222656 3.99796875 4.30195313 2.7734375 3.91015625 C1.85820313 3.60980469 0.94296875 3.30945313 0 3 C0 2.01 0 1.02 0 0 Z " fill="#E0E8CA" transform="translate(525,135)"/>
<path d="M0 0 C1.97862809 2.96794214 2.35942722 4.17530555 2.81640625 7.578125 C2.94031738 8.48530273 3.06422852 9.39248047 3.19189453 10.32714844 C3.31419434 11.29168945 3.43649414 12.25623047 3.5625 13.25 C3.69253418 14.23258789 3.82256836 15.21517578 3.95654297 16.22753906 C4.85575594 23.24483674 5.4622447 30.23138551 5.7890625 37.296875 C5.82690211 39.96736535 5.82690211 39.96736535 7 42 C7.06950541 43.54023996 7.08452357 45.08334988 7.0625 46.625 C7.05347656 47.44226563 7.04445312 48.25953125 7.03515625 49.1015625 C7.02355469 49.72804688 7.01195312 50.35453125 7 51 C4.15266178 46.72899268 3.90098297 42.71451825 3.53515625 37.67578125 C3.4582959 36.65476318 3.38143555 35.63374512 3.30224609 34.58178711 C3.22312988 33.50292236 3.14401367 32.42405762 3.0625 31.3125 C2.26434014 20.84409167 1.2513296 10.42330929 0 0 Z " fill="#A0B86B" transform="translate(170,589)"/>
<path d="M0 0 C0 3 0 3 -2.5 5.6875 C-3.325 6.450625 -4.15 7.21375 -5 8 C-4.67 8.66 -4.34 9.32 -4 10 C-5.7873962 11.33905267 -7.58004953 12.67109066 -9.375 14 C-10.37273437 14.7425 -11.37046875 15.485 -12.3984375 16.25 C-15 18 -15 18 -17 18 C-15.68904236 15.10261071 -14.28539071 13.03715911 -12.03125 10.80078125 C-11.46019531 10.23166016 -10.88914062 9.66253906 -10.30078125 9.07617188 C-9.70652344 8.49416016 -9.11226563 7.91214844 -8.5 7.3125 C-7.90574219 6.71888672 -7.31148438 6.12527344 -6.69921875 5.51367188 C-2.28134001 1.14067 -2.28134001 1.14067 0 0 Z " fill="#E6EDD3" transform="translate(464,306)"/>
<path d="M0 0 C0.66 0.33 1.32 0.66 2 1 C0.73046875 2.46484375 -0.5390625 3.9296875 -1.80859375 5.39453125 C-3.20871231 7.10712971 -3.20871231 7.10712971 -4 10 C-5.33333333 10.33333333 -6.66666667 10.66666667 -8 11 C-8.33 11.99 -8.66 12.98 -9 14 C-10.84765625 14.73046875 -10.84765625 14.73046875 -13.0625 15.1875 C-13.79597656 15.34605469 -14.52945313 15.50460937 -15.28515625 15.66796875 C-15.85105469 15.77753906 -16.41695312 15.88710938 -17 16 C-13.99640429 11.69049311 -10.39046526 8.83916345 -6.21875 5.74609375 C-3.96497426 3.97243573 -1.98751644 2.06430685 0 0 Z " fill="#A8956B" transform="translate(567,673)"/>
<path d="M0 0 C0.66 0.33 1.32 0.66 2 1 C-4.6 7.6 -11.2 14.2 -18 21 C-18.66 20.67 -19.32 20.34 -20 20 C-14.49047734 12.43821961 -8.39171398 6.70292168 -1 1 C-0.67 0.67 -0.34 0.34 0 0 Z " fill="#AA986F" transform="translate(273,472)"/>
<path d="M0 0 C0.66 0 1.32 0 2 0 C1.34 1.32 0.68 2.64 0 4 C1.89685547 4.19916016 1.89685547 4.19916016 3.83203125 4.40234375 C5.49220625 4.58055463 7.15236148 4.75894963 8.8125 4.9375 C10.06256836 5.06801758 10.06256836 5.06801758 11.33789062 5.20117188 C12.54155273 5.33168945 12.54155273 5.33168945 13.76953125 5.46484375 C14.50792236 5.543396 15.24631348 5.62194824 16.00708008 5.70288086 C18 6 18 6 21 7 C20.67 7.99 20.34 8.98 20 10 C20 9.34 20 8.68 20 8 C8.615 7.505 8.615 7.505 -3 7 C-2 2 -2 2 0 0 Z " fill="#A8BE75" transform="translate(431,288)"/>
<path d="M0 0 C-1.66463038 4.28642324 -4.79075837 7.08617217 -8 10.25 C-8.5465625 10.80429687 -9.093125 11.35859375 -9.65625 11.9296875 C-13.7466133 16 -13.7466133 16 -16 16 C-16 16.66 -16 17.32 -16 18 C-16.66 17.67 -17.32 17.34 -18 17 C-3.59400545 0 -3.59400545 0 0 0 Z " fill="#EDEADE" transform="translate(558,533)"/>
<path d="M0 0 C0.33 0 0.66 0 1 0 C1 8.25 1 16.5 1 25 C0.01 24.34 -0.98 23.68 -2 23 C-2.08367069 19.9729139 -2.00031368 17.18890276 -1.75 14.1875 C-1.69714844 13.37990234 -1.64429688 12.57230469 -1.58984375 11.74023438 C-1.30921754 7.75599481 -0.91713178 3.89781004 0 0 Z " fill="#BCAC8B" transform="translate(590,332)"/>
<path d="M0 0 C0 0.66 0 1.32 0 2 C-0.99 2 -1.98 2 -3 2 C-3 2.66 -3 3.32 -3 4 C-3.99 4.495 -3.99 4.495 -5 5 C-0.71 5 3.58 5 8 5 C4.27933528 7.48044315 1.13459526 7.44381173 -3.1875 7.625 C-3.93708984 7.66367187 -4.68667969 7.70234375 -5.45898438 7.7421875 C-7.30559199 7.83628216 -9.1527619 7.91922319 -11 8 C-9.10281003 3.48468788 -5.21035321 0 0 0 Z " fill="#E5EDCF" transform="translate(452,338)"/>
<path d="M0 0 C0.66 0.33 1.32 0.66 2 1 C1.67 1.66 1.34 2.32 1 3 C-0.32 3 -1.64 3 -3 3 C-3 3.66 -3 4.32 -3 5 C-1.02 5 0.96 5 3 5 C3 5.33 3 5.66 3 6 C-2.80766296 7.5056904 -7.9981863 8.21824777 -14 8 C-12.62134523 5.24269046 -10.66607631 4.90498432 -7.9140625 3.80078125 C-6.12566963 3.05257607 -4.40159504 2.15555964 -2.6875 1.25 C-1.800625 0.8375 -0.91375 0.425 0 0 Z " fill="#BAAC8C" transform="translate(577,721)"/>
<path d="M0 0 C0.66 0.33 1.32 0.66 2 1 C-4 7 -10 13 -16 19 C-16.66 18.67 -17.32 18.34 -18 18 C-17.01 16.515 -17.01 16.515 -16 15 C-15.34 15 -14.68 15 -14 15 C-13.73832031 14.4121875 -13.47664063 13.824375 -13.20703125 13.21875 C-10.26672685 7.8139186 -4.83580635 3.66348966 0 0 Z " fill="#AB9970" transform="translate(337,520)"/>
<path d="M0 0 C-0.33 1.32 -0.66 2.64 -1 4 C-2.32 4.33 -3.64 4.66 -5 5 C-5 4.34 -5 3.68 -5 3 C-8.74428936 4.08090014 -8.74428936 4.08090014 -11.0625 7 C-11.371875 7.66 -11.68125 8.32 -12 9 C-14.125 10.25 -14.125 10.25 -16 11 C-14.55922954 7.63820226 -12.75249979 5.40843732 -10 3 C-9.34 3 -8.68 3 -8 3 C-8 2.34 -8 1.68 -8 1 C-5.07175348 0.02391783 -3.04386724 -0.08226668 0 0 Z " fill="#E0E8C8" transform="translate(640,137)"/>
<path d="M0 0 C4.00641016 1.33547005 4.92462273 3.78565422 6.8125 7.3125 C7.45832031 8.46363281 8.10414063 9.61476563 8.76953125 10.80078125 C10 14 10 14 9.19921875 16.41796875 C8.80347656 16.94003906 8.40773438 17.46210937 8 18 C5.93452078 14.90178117 4.43756389 11.81550648 2.875 8.4375 C2.33617187 7.28121094 1.79734375 6.12492187 1.2421875 4.93359375 C0 2 0 2 0 0 Z " fill="#EDE8DA" transform="translate(624,501)"/>
<path d="M0 0 C-1.57373592 3.80172161 -3.97621642 6.24341988 -6.875 9.125 C-7.73867188 9.99382813 -8.60234375 10.86265625 -9.4921875 11.7578125 C-11.64788374 13.68517954 -13.35514153 14.90515161 -16 16 C-14.33536962 11.71357676 -11.20924163 8.91382783 -8 5.75 C-7.4534375 5.19570313 -6.906875 4.64140625 -6.34375 4.0703125 C-2.2533867 0 -2.2533867 0 0 0 Z " fill="#E6E0D1" transform="translate(523,650)"/>
<path d="M0 0 C0.66 0.33 1.32 0.66 2 1 C0.88200014 2.33920838 -0.24461897 3.67122556 -1.375 5 C-2.00148438 5.7425 -2.62796875 6.485 -3.2734375 7.25 C-4.12808594 8.11625 -4.12808594 8.11625 -5 9 C-5.66 9 -6.32 9 -7 9 C-7 9.99 -7 10.98 -7 12 C-2.05 12 2.9 12 8 12 C8 12.33 8 12.66 8 13 C2.72 13 -2.56 13 -8 13 C-8 8 -8 8 -6.25 5.76171875 C-5.13625 4.73498047 -5.13625 4.73498047 -4 3.6875 C-3.2575 2.99011719 -2.515 2.29273438 -1.75 1.57421875 C-1.1725 1.05472656 -0.595 0.53523437 0 0 Z " fill="#AEC37C" transform="translate(632,209)"/>
<path d="M0 0 C0.84159003 3.15115712 1.13466164 5.91703633 1.125 9.1875 C1.12886719 10.50814453 1.12886719 10.50814453 1.1328125 11.85546875 C1 14 1 14 0 15 C-0.23653523 17.52596259 -0.42173692 20.03107207 -0.5625 22.5625 C-0.60568359 23.27341797 -0.64886719 23.98433594 -0.69335938 24.71679688 C-0.79971777 26.47761912 -0.90038846 28.2387832 -1 30 C-1.33 30 -1.66 30 -2 30 C-2.05869332 26.50007197 -2.09382709 23.0002728 -2.125 19.5 C-2.14175781 18.51773438 -2.15851563 17.53546875 -2.17578125 16.5234375 C-2.21499874 10.64081335 -1.70432638 5.63635497 0 0 Z " fill="#B3A582" transform="translate(393,551)"/>
<path d="M0 0 C0.33 0.66 0.66 1.32 1 2 C-0.14322991 3.14322991 -1.28710215 4.28582237 -2.43359375 5.42578125 C-3.56106195 6.55887273 -4.67690909 7.70357072 -5.78515625 8.85546875 C-6.39230469 9.48066406 -6.99945313 10.10585937 -7.625 10.75 C-8.19476563 11.34296875 -8.76453125 11.9359375 -9.3515625 12.546875 C-11 14 -11 14 -14 15 C-12.41948722 11.14750011 -9.94555446 8.71095984 -7 5.8125 C-6.113125 4.93207031 -5.22625 4.05164063 -4.3125 3.14453125 C-2 1 -2 1 0 0 Z " fill="#E3EACE" transform="translate(367,181)"/>
<path d="M0 0 C0.66 0.33 1.32 0.66 2 1 C-2.62 5.62 -7.24 10.24 -12 15 C-12.66 14.67 -13.32 14.34 -14 14 C-12.38405168 11.95880212 -10.7143618 9.95927063 -9 8 C-8.34 8 -7.68 8 -7 8 C-7 7.34 -7 6.68 -7 6 C-5.46875 4.4921875 -5.46875 4.4921875 -3.5 2.875 C-2.8503125 2.33617187 -2.200625 1.79734375 -1.53125 1.2421875 C-0.77328125 0.62730469 -0.77328125 0.62730469 0 0 Z " fill="#E6E0D2" transform="translate(357,541)"/>
<path d="M0 0 C0.66 0.99 1.32 1.98 2 3 C4.43693311 3.36416047 4.43693311 3.36416047 7.125 3.1875 C8.49011719 3.14689453 8.49011719 3.14689453 9.8828125 3.10546875 C10.58148438 3.07066406 11.28015625 3.03585938 12 3 C8.23140928 5.51239382 5.73760751 6.12663199 1.3125 6.0625 C0.10013672 6.04896484 0.10013672 6.04896484 -1.13671875 6.03515625 C-2.05904297 6.01775391 -2.05904297 6.01775391 -3 6 C-2.42655063 3.13275314 -2.1385485 2.1385485 0 0 Z " fill="#B2C585" transform="translate(441,208)"/>
<path d="M0 0 C0 3 0 3 -1.8984375 5.26171875 C-2.71570313 6.06222656 -3.53296875 6.86273437 -4.375 7.6875 C-5.18710937 8.49574219 -5.99921875 9.30398438 -6.8359375 10.13671875 C-9 12 -9 12 -11 12 C-9.60609461 8.84280428 -7.96365028 6.7187347 -5.5 4.3125 C-4.8915625 3.71050781 -4.283125 3.10851562 -3.65625 2.48828125 C-2 1 -2 1 0 0 Z " fill="#E8E3D6" transform="translate(517,595)"/>
<path d="M0 0 C2.83360193 4.25040289 2.41305774 8.01153346 2 13 C1 16.125 1 16.125 0 18 C-0.33 18 -0.66 18 -1 18 C-0.505 9.09 -0.505 9.09 0 0 Z " fill="#BACC90" transform="translate(664,297)"/>
<path d="M0 0 C-1.59092052 4.13639336 -4.60474918 7.23213248 -8 10 C-8.66 10 -9.32 10 -10 10 C-8.71596412 5.50587442 -5.23012555 0 0 0 Z " fill="#E9EFD5" transform="translate(631,203)"/>
<path d="M0 0 C2.0234375 3.703125 2.0234375 3.703125 1.8125 6.375 C0.86046637 9.45080097 -0.4834697 12.1647477 -2 15 C-3.31534494 11.34142468 -2.65468309 8.91973519 -1.5625 5.25 C-1.27503906 4.26515625 -0.98757813 3.2803125 -0.69140625 2.265625 C-0.46324219 1.51796875 -0.23507812 0.7703125 0 0 Z " fill="#EBF1DA" transform="translate(336,224)"/>
<path d="M0 0 C0.66 0.33 1.32 0.66 2 1 C0.5484451 2.67257355 -0.91144409 4.33791758 -2.375 6 C-3.18710937 6.928125 -3.99921875 7.85625 -4.8359375 8.8125 C-5.55007813 9.534375 -6.26421875 10.25625 -7 11 C-7.66 11 -8.32 11 -9 11 C-7.59155282 7.78475695 -5.89655214 5.67816132 -3.375 3.25 C-2.74335938 2.63640625 -2.11171875 2.0228125 -1.4609375 1.390625 C-0.73777344 0.70226562 -0.73777344 0.70226562 0 0 Z " fill="#AC9A70" transform="translate(472,533)"/>
<path d="M0 0 C3.26739717 1.63369858 3.71704704 4.70894675 5 8 C5.35137088 9.32869387 5.68966517 10.6611269 6 12 C4.68388323 11.04663979 3.37221039 10.08714226 2.0625 9.125 C1.33160156 8.59132813 0.60070312 8.05765625 -0.15234375 7.5078125 C-2 6 -2 6 -3 4 C-1.68 4.33 -0.36 4.66 1 5 C0.67 3.35 0.34 1.7 0 0 Z " fill="#D8D0B9" transform="translate(566,354)"/>
<path d="M0 0 C0.99 0 1.98 0 3 0 C3 1.32 3 2.64 3 4 C3.66 4 4.32 4 5 4 C5 8.29 5 12.58 5 17 C4.01 17 3.02 17 2 17 C2.33 16.67 2.66 16.34 3 16 C3.59260933 10.48417465 3.34021099 6.59279011 0 2 C0 1.34 0 0.68 0 0 Z " fill="#CEDBAE" transform="translate(421,256)"/>
<path d="M0 0 C0.33 0 0.66 0 1 0 C1.34548714 6.33393082 0.29342747 11.10261508 -2 17 C-3.44715727 13.12813552 -2.5441918 10.1767672 -1.5625 6.25 C-1.27503906 5.07953125 -0.98757812 3.9090625 -0.69140625 2.703125 C-0.46324219 1.81109375 -0.23507813 0.9190625 0 0 Z " fill="#D3DFB3" transform="translate(198,542)"/>
<path d="M0 0 C0.33 0.66 0.66 1.32 1 2 C0.67 2.66 0.34 3.32 0 4 C1.98 3.67 3.96 3.34 6 3 C3.16569547 6.2542015 1.31392226 7.5206753 -3 8 C-2.37240135 5.07120629 -1.41377341 2.63904371 0 0 Z " fill="#C0B393" transform="translate(524,680)"/>
<path d="M0 0 C1.98 1.65 3.96 3.3 6 5 C4.4375 5.75 4.4375 5.75 2 6 C-0.50286409 4.86915563 -2.67007722 3.47860484 -5 2 C-4.34 1.67 -3.68 1.34 -3 1 C-2.01 1.33 -1.02 1.66 0 2 C0 1.34 0 0.68 0 0 Z " fill="#DED6C0" transform="translate(390,637)"/>
<path d="M0 0 C0.66 0.33 1.32 0.66 2 1 C0.75645114 2.29787866 -0.4951264 3.58806759 -1.75 4.875 C-2.44609375 5.59429688 -3.1421875 6.31359375 -3.859375 7.0546875 C-5.85122217 8.86479679 -7.5427658 9.94848086 -10 11 C-8.55218207 7.55571735 -6.72305391 5.63869038 -3.875 3.25 C-3.15054687 2.63640625 -2.42609375 2.0228125 -1.6796875 1.390625 C-0.84824219 0.70226562 -0.84824219 0.70226562 0 0 Z " fill="#AE9C76" transform="translate(433,571)"/>
<path d="M0 0 C0.66 0.33 1.32 0.66 2 1 C0.90344712 2.31886772 -0.20253423 3.62990057 -1.3125 4.9375 C-1.92738281 5.66839844 -2.54226563 6.39929688 -3.17578125 7.15234375 C-5 9 -5 9 -8 10 C-6.44303593 6.17836093 -3.96591316 3.81381505 -1 1 C-0.67 0.67 -0.34 0.34 0 0 Z " fill="#A2BB6A" transform="translate(628,191)"/>
<path d="M0 0 C3.24208567 0.35049575 4.61527704 0.56221181 6.8125 3.0625 C7.204375 3.701875 7.59625 4.34125 8 5 C6.68 4.67 5.36 4.34 4 4 C3.67 4.99 3.34 5.98 3 7 C0 3.375 0 3.375 0 0 Z " fill="#B5A684" transform="translate(575,542)"/>
<path d="M0 0 C3.16115776 1.36983503 3.9927092 1.9890638 6 5 C5.01 5 4.02 5 3 5 C2.67 6.32 2.34 7.64 2 9 C0.14223235 5.86501708 -0.20140476 3.62528568 0 0 Z " fill="#E6ECD2" transform="translate(354,333)"/>
<path d="M0 0 C0.66 0.33 1.32 0.66 2 1 C2 1.66 2 2.32 2 3 C0.71086513 3.67154933 -0.58140204 4.33708859 -1.875 5 C-2.59429688 5.37125 -3.31359375 5.7425 -4.0546875 6.125 C-6 7 -6 7 -8 7 C-6.88424427 3.65273281 -6.48655378 3.37920252 -3.5625 1.75 C-2.386875 1.1725 -1.21125 0.595 0 0 Z " fill="#C5BAA0" transform="translate(563,705)"/>
<path d="M0 0 C0.33 0 0.66 0 1 0 C2.86783046 5.48675196 3.2358396 10.22192976 3 16 C-0.42724441 10.85913339 -0.1015597 5.99202204 0 0 Z " fill="#C2D29A" transform="translate(174,624)"/>
<path d="M0 0 C3.04854904 2.48741501 3.60648591 4.61274286 4.25 8.4375 C4.50523437 9.85869141 4.50523437 9.85869141 4.765625 11.30859375 C4.98916046 13.87552599 4.80225346 15.57604847 4 18 C3.32678716 15.75194998 2.66165877 13.50147776 2 11.25 C1.62875 9.99703125 1.2575 8.7440625 0.875 7.453125 C0 4 0 4 0 0 Z " fill="#E6E0D0" transform="translate(579,552)"/>
<path d="M0 0 C0.33 0.99 0.66 1.98 1 3 C-1.31 5.31 -3.62 7.62 -6 10 C-6.66 9.67 -7.32 9.34 -8 9 C-6.85459775 7.68712379 -5.70866567 6.37470979 -4.5625 5.0625 C-3.92441406 4.33160156 -3.28632812 3.60070312 -2.62890625 2.84765625 C-1.77458541 1.87860647 -0.91348825 0.91348825 0 0 Z " fill="#AC9870" transform="translate(544,532)"/>
<path d="M0 0 C-1.5830577 4.2742558 -4.50568404 6.26531794 -8 9 C-8 6 -8 6 -6.7578125 4.39453125 C-5.94957031 3.61142578 -5.94957031 3.61142578 -5.125 2.8125 C-4.59132813 2.28269531 -4.05765625 1.75289063 -3.5078125 1.20703125 C-2 0 -2 0 0 0 Z " fill="#E8E3D4" transform="translate(584,400)"/>
<path d="M0 0 C1.12021481 3.32279933 0.88681157 5.26909001 -0.25 8.5625 C-0.50265625 9.32691406 -0.7553125 10.09132813 -1.015625 10.87890625 C-2.04955782 13.1067853 -3.1679581 14.38924406 -5 16 C-3.41078475 10.63904723 -1.81027062 5.29156027 0 0 Z " fill="#D5CCB6" transform="translate(649,365)"/>
<path d="M0 0 C-2.70879335 1.35439668 -5.00933268 1.06501451 -8 1 C-8 1.66 -8 2.32 -8 3 C-10.64 3 -13.28 3 -16 3 C-11.08294543 0.13171817 -5.53605896 -1.7423757 0 0 Z " fill="#E3EACD" transform="translate(192,337)"/>
<path d="M0 0 C-4.77357872 2.71391278 -8.34388537 4.56561146 -14 4 C-12.66065756 1.32131513 -11.48307603 1.25045922 -8.6875 0.3125 C-7.90761719 0.04050781 -7.12773437 -0.23148437 -6.32421875 -0.51171875 C-3.81725489 -1.03839183 -2.39867657 -0.8178554 0 0 Z " fill="#BACC91" transform="translate(517,292)"/>
<path d="M0 0 C0.66 0.33 1.32 0.66 2 1 C1.09515208 2.15518918 0.1755794 3.29885406 -0.75 4.4375 C-1.26046875 5.07558594 -1.7709375 5.71367187 -2.296875 6.37109375 C-4.19667629 8.18810554 -5.43586908 8.60423197 -8 9 C-7.04270084 7.87411986 -6.08412105 6.7493285 -5.125 5.625 C-4.59132813 4.99851563 -4.05765625 4.37203125 -3.5078125 3.7265625 C-2.38567993 2.44163349 -1.20628025 1.20628025 0 0 Z " fill="#A0B969" transform="translate(362,202)"/>
<path d="M0 0 C0.66 0.33 1.32 0.66 2 1 C-0.97 3.97 -3.94 6.94 -7 10 C-7.99 9.67 -8.98 9.34 -10 9 C-6.7 6.03 -3.4 3.06 0 0 Z " fill="#A5BD70" transform="translate(281,159)"/>
<path d="M0 0 C0.33 0 0.66 0 1 0 C1.36836955 4.29764472 0.39180503 6.46012855 -2 10 C-2.33 10.66 -2.66 11.32 -3 12 C-3.66 12 -4.32 12 -5 12 C-4.54738642 10.56068883 -4.08767021 9.12361001 -3.625 7.6875 C-3.24214844 6.48673828 -3.24214844 6.48673828 -2.8515625 5.26171875 C-2 3 -2 3 0 0 Z " fill="#DEE7C3" transform="translate(342,211)"/>
<path d="M0 0 C0.33 0.99 0.66 1.98 1 3 C0.0479279 4.00596297 -0.91187346 5.00461563 -1.875 6 C-2.40867187 6.556875 -2.94234375 7.11375 -3.4921875 7.6875 C-5 9 -5 9 -7 9 C-5.44499019 5.18315774 -2.96404505 2.80804268 0 0 Z " fill="#A1BA6A" transform="translate(353,211)"/>
<path d="M0 0 C2.88575819 0.39803561 3.82189513 0.79009069 5.75 3.0625 C6.1625 3.701875 6.575 4.34125 7 5 C6.34 5 5.68 5 5 5 C4.01 6.485 4.01 6.485 3 8 C0 2.25 0 2.25 0 0 Z " fill="#B7A786" transform="translate(456,598)"/>
<path d="M0 0 C0.66 0.99 1.32 1.98 2 3 C-0.97 5.475 -0.97 5.475 -4 8 C-4.66 7.67 -5.32 7.34 -6 7 C-4.02 4.69 -2.04 2.38 0 0 Z " fill="#A4BC6E" transform="translate(448,299)"/>
<path d="M0 0 C-1.28888029 2.8751945 -2.53266983 5.0071564 -5 7 C-7.1875 7.6875 -7.1875 7.6875 -9 8 C-9 6 -9 6 -7.5390625 4.4921875 C-6.59160156 3.69167969 -6.59160156 3.69167969 -5.625 2.875 C-4.99851562 2.33617188 -4.37203125 1.79734375 -3.7265625 1.2421875 C-2 0 -2 0 0 0 Z " fill="#E7EDD3" transform="translate(312,117)"/>
<path d="M0 0 C3.26954202 0.56371414 4.82575883 1.49962266 7 4 C5.02 4.33 3.04 4.66 1 5 C0.67 3.35 0.34 1.7 0 0 Z " fill="#B09F7B" transform="translate(495,548)"/>
<path d="M0 0 C0.66 0.33 1.32 0.66 2 1 C0.02 3.97 0.02 3.97 -2 7 C-2.99 6.67 -3.98 6.34 -5 6 C-3.63016497 2.83884224 -3.0109362 2.0072908 0 0 Z " fill="#DAE4C0" transform="translate(413,396)"/>
<path d="M0 0 C0.66 0.33 1.32 0.66 2 1 C-0.31 3.64 -2.62 6.28 -5 9 C-5.33 8.01 -5.66 7.02 -6 6 C-4.02 4.02 -2.04 2.04 0 0 Z " fill="#A3BC6E" transform="translate(632,209)"/>
<path d="M0 0 C-1.4096347 0.70180531 -2.82807641 1.38593958 -4.25 2.0625 C-5.03890625 2.44535156 -5.8278125 2.82820313 -6.640625 3.22265625 C-9.25993522 4.08564091 -10.44855176 3.93045933 -13 3 C-11.5903653 2.29819469 -10.17192359 1.61406042 -8.75 0.9375 C-7.96109375 0.55464844 -7.1721875 0.17179687 -6.359375 -0.22265625 C-3.74006478 -1.08564091 -2.55144824 -0.93045933 0 0 Z " fill="#C2D29E" transform="translate(229,78)"/>
<path d="M0 0 C0.99 0.33 1.98 0.66 3 1 C4.1875 4.0625 4.1875 4.0625 5 7 C4.34 7.66 3.68 8.32 3 9 C2.01 6.03 1.02 3.06 0 0 Z " fill="#C6B795" transform="translate(624,501)"/>
<path d="M0 0 C0 0.99 0 1.98 0 3 C-2.53184488 5.35723489 -3.47190093 6 -7 6 C-6.67 4.35 -6.34 2.7 -6 1 C-5.67 1.99 -5.34 2.98 -5 4 C-3.35 2.68 -1.7 1.36 0 0 Z " fill="#C3D39C" transform="translate(243,193)"/>
<path d="M0 0 C0.33 0.99 0.66 1.98 1 3 C-1.97 5.475 -1.97 5.475 -5 8 C-5.66 7.67 -6.32 7.34 -7 7 C-4.69 4.69 -2.38 2.38 0 0 Z " fill="#DBE5C1" transform="translate(455,135)"/>
<path d="M0 0 C-0.66 1.65 -1.32 3.3 -2 5 C-1.34 5.33 -0.68 5.66 0 6 C-1.32 6.33 -2.64 6.66 -4 7 C-4.33 5.35 -4.66 3.7 -5 2 C-2 0 -2 0 0 0 Z " fill="#AD9C75" transform="translate(578,697)"/>
<path d="M0 0 C0.625 1.8125 0.625 1.8125 1 4 C0.01 5.485 0.01 5.485 -1 7 C-1.66 7 -2.32 7 -3 7 C-3.33 7.99 -3.66 8.98 -4 10 C-3.43454163 6.04179141 -2.19097652 3.3340947 0 0 Z " fill="#B7A886" transform="translate(310,551)"/>
<path d="M0 0 C-6.4 3.07692308 -6.4 3.07692308 -9.4375 2.6875 C-9.953125 2.460625 -10.46875 2.23375 -11 2 C-3.57142857 -1.57142857 -3.57142857 -1.57142857 0 0 Z " fill="#B6C989" transform="translate(495,300)"/>
<path d="M0 0 C0 0.66 0 1.32 0 2 C-5.45769231 5.10096154 -5.45769231 5.10096154 -8.203125 4.58984375 C-8.79609375 4.39519531 -9.3890625 4.20054687 -10 4 C-8.71086513 3.32845067 -7.41859796 2.66291141 -6.125 2 C-5.40570313 1.62875 -4.68640625 1.2575 -3.9453125 0.875 C-2 0 -2 0 0 0 Z " fill="#D3DFB5" transform="translate(388,169)"/>
<path d="M0 0 C1.65 0.33 3.3 0.66 5 1 C4 3 4 3 2.15234375 3.6328125 C1.42144531 3.79523437 0.69054687 3.95765625 -0.0625 4.125 C-0.79597656 4.29257812 -1.52945313 4.46015625 -2.28515625 4.6328125 C-2.85105469 4.75398437 -3.41695312 4.87515625 -4 5 C-2.68 3.35 -1.36 1.7 0 0 Z " fill="#C8BCA3" transform="translate(554,684)"/>
<path d="M0 0 C0.33 0 0.66 0 1 0 C1.33 3.3 1.66 6.6 2 10 C0.68 9.67 -0.64 9.34 -2 9 C-1.34 8.67 -0.68 8.34 0 8 C0 5.36 0 2.72 0 0 Z " fill="#DDD5C1" transform="translate(391,581)"/>
<path d="M0 0 C-0.33 0.99 -0.66 1.98 -1 3 C-3.31 3.33 -5.62 3.66 -8 4 C-4.5 0 -4.5 0 0 0 Z " fill="#B6C889" transform="translate(501,115)"/>
</svg>
